<svg width="48" height="48" viewBox="0 0 48 48" fill="none" xmlns="http://www.w3.org/2000/svg">
<path d="M37.3984 9.3418C38.3066 8.36523 38.873 7.03711 38.873 5.57227C38.873 2.51563 36.4316 0.0742188 33.4727 0.0742188C31.2266 0.0742188 26.0508 3.43359 23.9805 6.45117C21.8418 3.43359 16.6855 0.171875 14.5273 0.171875C11.5781 0.171875 9.12695 2.61328 9.12695 5.66992C9.12695 7.08594 9.6543 8.36523 10.5039 9.33203H0.0742188V22.4668H2.92578V47.9258H17.8965H30.1133H45.084V22.4766H47.9258V9.3418H37.3984ZM33.4727 2.11523C35.3086 2.11523 36.832 3.63867 36.832 5.67969C36.832 7.39844 35.6309 8.87305 34.0781 9.18555H25.8164C25.2891 9.0293 25.123 8.84375 25.123 8.73633C25.123 6.99805 31.2266 2.11523 33.4727 2.11523ZM14.5273 2.11523C16.666 2.11523 22.877 6.99805 22.877 8.73633C22.877 8.89258 22.5156 9.06836 22.252 9.18555H13.9316C12.3789 8.87305 11.1777 7.39844 11.1777 5.67969C11.168 3.73633 12.7012 2.11523 14.5273 2.11523ZM17.8867 45.8848H4.95703V22.4766H17.8867V45.8848ZM17.8867 20.543H2.11523V11.3828H17.8965V20.543H17.8867ZM28.0625 45.8848H19.918V11.373H28.0625V45.8848ZM43.0332 45.8848H30.1035V22.4766H43.0332V45.8848ZM45.875 20.543H30.1035V11.3828H45.8848V20.543H45.875Z" fill="black"/>
</svg>
