<svg width="76" height="90" viewBox="0 0 76 90" fill="none" xmlns="http://www.w3.org/2000/svg">
<path fill-rule="evenodd" clip-rule="evenodd" d="M40.7463 29.7753V29.9162H40.7771V30.1277H40.7463V30.8321H40.7155V30.9026C40.6847 30.9142 40.6539 30.9261 40.6232 30.9377V30.973H40.5616V31.0083C40.3974 31.0199 40.2333 31.0316 40.0691 31.0435C39.6986 31.1673 39.2086 31.132 38.8377 31.2548C38.6941 31.2667 38.5504 31.2785 38.4068 31.2901C38.1799 31.3718 37.8929 31.4491 37.6679 31.5366C37.5858 31.5485 37.5037 31.5602 37.4217 31.5719V31.607H37.3601V31.6423C37.2985 31.6541 37.237 31.6657 37.1754 31.6776V31.7128C37.1241 31.7245 37.0726 31.7363 37.0213 31.7479V31.7832H36.9598V31.8185H36.8674V31.8538H36.8059V31.8888H36.7135V31.9241H36.6212V31.9594L36.4365 32.0297V32.065H36.3749L36.3442 32.1354C36.3031 32.1472 36.2621 32.159 36.221 32.1707C36.2108 32.1941 36.2005 32.2178 36.1903 32.2412C36.1492 32.2528 36.1082 32.2647 36.0671 32.2763C36.0569 32.3 36.0466 32.3234 36.0364 32.3469C35.9953 32.3587 35.9543 32.3703 35.9132 32.3821L35.8825 32.4525C35.8414 32.4643 35.8002 32.4759 35.7592 32.4878L35.7284 32.5581H35.6668V32.5934H35.6052C35.5847 32.6287 35.5642 32.6639 35.5437 32.699H35.5129C35.5026 32.7225 35.4924 32.7462 35.4821 32.7696H35.4206C35.3487 32.8634 35.2769 32.9574 35.2051 33.0514H35.1435C35.0717 33.1452 34.9999 33.2392 34.9281 33.3333H34.8665C34.8255 33.3918 34.7844 33.4505 34.7434 33.5093C34.7229 33.5211 34.7024 33.5327 34.6818 33.5445V33.6149C34.6511 33.6386 34.6203 33.6621 34.5895 33.6855V33.7558C34.5585 33.7795 34.5277 33.803 34.497 33.8264V33.8967C34.4662 33.9202 34.4354 33.9439 34.4046 33.9673V34.0376C34.3739 34.0611 34.3431 34.0848 34.3123 34.1082V34.1786C34.2815 34.202 34.2507 34.2257 34.22 34.2491V34.3195C34.1892 34.3429 34.1584 34.3665 34.1276 34.3901V34.4604C34.1071 34.4722 34.0866 34.4838 34.0661 34.4957V34.566L34.0045 34.6366V34.7069H33.9737V34.7775H33.9429V34.8479H33.9122V34.9184H33.8814V34.9888H33.8506V35.0594H33.8198V35.1297H33.789V35.2003H33.7583V35.2706H33.7275V35.3412H33.6967L33.6659 35.4819H33.6351V35.5525H33.6044V35.6581H33.5736V35.7287H33.5428V35.8343H33.512C33.5018 35.9046 33.4915 35.9752 33.4812 36.0456H33.4505V36.1161H33.4197V36.2218H33.3889C33.3786 36.2921 33.3684 36.3627 33.3581 36.433H33.3271V36.5036H33.2964V36.6092H33.2656C33.2553 36.7383 33.2451 36.8675 33.2348 36.9967C33.0895 37.5465 33.0686 38.2308 32.927 38.7933V39.1808L32.8962 39.9204H32.8654V41.0478H32.8347V41.4353C32.7427 41.8084 32.7731 42.3397 32.7731 42.8091V57.111C32.9344 57.2189 32.8939 57.2872 33.1732 57.2872C33.2935 57.1751 33.6975 57.2779 33.8814 57.2167V57.1814H34.1892V57.1463H34.4046V57.111H34.5278V57.0757H34.6511V57.0405H34.7742V57.0054H34.8973V56.9701H35.0204V56.9348C35.1025 56.9232 35.1846 56.9115 35.2667 56.8998V56.8645H35.359V56.8292H35.4513V56.7939H35.5437V56.7588H35.636V56.7236H35.7284V56.6883H35.8515V56.653H35.944V56.6179H36.0364V56.5826H36.1287V56.5474C36.1903 56.5357 36.2518 56.524 36.3134 56.5121V56.477C36.3544 56.4651 36.3955 56.4533 36.4365 56.4417V56.4064H36.5288V56.3712H36.5904V56.3361C36.6314 56.3243 36.6725 56.3126 36.7135 56.3008V56.2655H36.8059V56.2305C36.8469 56.2185 36.8879 56.2068 36.929 56.1952V56.1599H37.0213V56.1246C37.0829 56.1012 37.1445 56.0777 37.2062 56.0543V56.019H37.2677V55.9837C37.3088 55.9721 37.3498 55.9602 37.3909 55.9486C37.4011 55.925 37.4114 55.9015 37.4217 55.8781H37.4832V55.8428H37.5448L37.5756 55.7724C37.6371 55.749 37.6987 55.7254 37.7602 55.7019L37.791 55.6315C37.8321 55.6197 37.8731 55.6081 37.9141 55.5962L37.9449 55.5259C38.0065 55.5024 38.068 55.4789 38.1296 55.4553L38.1604 55.385H38.2219C38.2322 55.3615 38.2425 55.3381 38.2527 55.3144H38.3143C38.3245 55.2909 38.3348 55.2675 38.3452 55.244H38.4068C38.4169 55.2206 38.4273 55.1971 38.4376 55.1735C38.4684 55.1619 38.4991 55.15 38.5299 55.1384V55.1031C38.571 55.0913 38.612 55.0797 38.653 55.0678L38.6838 54.9975H38.7454C38.7556 54.974 38.7659 54.9504 38.7762 54.9269H38.8377V54.8919C38.8685 54.8799 38.8993 54.8682 38.9301 54.8566C38.9403 54.8331 38.9506 54.8094 38.9608 54.786H39.0224C39.0429 54.7509 39.0634 54.7157 39.084 54.6804H39.1455L39.2686 54.5042H39.3302C39.3712 54.4457 39.4123 54.387 39.4533 54.3282H39.5149C39.5559 54.2695 39.597 54.2107 39.6382 54.152H39.6997L39.8229 53.9758H39.8844C39.9049 53.9407 39.9255 53.9055 39.946 53.8701C40.0178 53.7998 40.0896 53.7294 40.1615 53.6589V53.5883C40.3051 53.4358 40.4487 53.2832 40.5924 53.1305V53.0599C40.6847 52.9661 40.7771 52.8722 40.8694 52.7781V52.7077C40.9104 52.6725 40.9517 52.6372 40.9927 52.6021V52.5315C41.0337 52.4963 41.0748 52.4612 41.1158 52.4259V52.3553C41.1569 52.3203 41.1979 52.2851 41.2389 52.2497V52.1794C41.28 52.1441 41.321 52.1089 41.3621 52.0737V52.0032C41.4031 51.9679 41.4441 51.9328 41.4852 51.8975V51.827L41.5775 51.7566V51.686C41.598 51.6744 41.6186 51.6626 41.6391 51.651C41.6493 51.6039 41.6596 51.5569 41.6699 51.5101C41.6904 51.4982 41.7109 51.4866 41.7314 51.4748C41.7417 51.4279 41.7519 51.3808 41.7622 51.3339H41.793C41.8032 51.2986 41.8135 51.2635 41.8238 51.2282C41.8443 51.2164 41.8648 51.2048 41.8853 51.1929V51.1226H41.9161V51.052C41.9366 51.0404 41.9571 51.0286 41.9777 51.0167L42.0084 50.876C42.029 50.8642 42.0495 50.8524 42.07 50.8408C42.0803 50.7936 42.0905 50.7467 42.1008 50.6998C42.1213 50.688 42.1418 50.6764 42.1623 50.6646C42.1726 50.6177 42.1829 50.5705 42.1933 50.5236C42.2138 50.512 42.2344 50.5002 42.2549 50.4884V50.418C42.2754 50.4062 42.2959 50.3946 42.3164 50.3827C42.3267 50.3358 42.337 50.2889 42.3472 50.2418C42.3677 50.2302 42.3883 50.2184 42.4088 50.2067C42.419 50.1596 42.4293 50.1127 42.4396 50.0658H42.4703L42.5011 49.96C42.5216 49.9484 42.5422 49.9365 42.5627 49.9249C42.5729 49.8778 42.5832 49.8308 42.5935 49.784C42.614 49.7722 42.6345 49.7605 42.655 49.7487V49.6781H42.6858V49.6078H42.7166V49.5022H42.7474C42.7576 49.455 42.7679 49.4081 42.7781 49.3612H42.8089V49.2556H42.8397V49.185H42.8705C42.8807 49.1381 42.891 49.091 42.9013 49.0441H42.932V48.9385H42.9628C42.9731 48.8916 42.9833 48.8445 42.9936 48.7976H43.0244V48.6919H43.0552C43.0654 48.645 43.0757 48.5979 43.0859 48.551H43.1167V48.4454H43.1475V48.3748H43.1783V48.2692H43.2091C43.2193 48.2223 43.2296 48.1752 43.2398 48.1283H43.2706V48.0226H43.3014C43.3117 47.9757 43.3219 47.9286 43.3322 47.8817H43.363V47.7761H43.3937V47.7055H43.4245V47.5999H43.4553V47.5295H43.4863C43.5068 47.4237 43.5273 47.318 43.5478 47.2124H43.5786V47.1068H43.6094V47.0009H43.6402V46.8953H43.6709V46.7897H43.7017V46.684H43.7325V46.5784H43.7633V46.4725H43.7941C43.8043 46.3787 43.8146 46.2849 43.8248 46.1909H43.8556V46.0851H43.8864V45.9442H43.9172V45.8032H43.948L43.9787 45.5567H44.0095L44.0403 45.3101H44.0711V45.1692H44.1019V45.0636H44.1326L44.1634 44.817H44.1942L44.225 44.5705H44.2558L44.3173 44.2181H44.3481C44.3686 44.1008 44.3891 43.9835 44.4097 43.8659H44.4404V43.725H44.4712V43.6194H44.502V43.5137H44.5328V43.3728H44.5636V43.267H44.5943C44.6354 42.8913 44.6765 42.5156 44.7177 42.1398H44.7484V41.9989H44.7792V41.858H44.81C44.8203 41.7523 44.8305 41.6466 44.8408 41.5409H44.8716C44.8974 41.4902 44.8927 41.4806 44.9023 41.4C45.2635 41.3928 45.6245 41.4283 45.9796 41.5058C46.0132 41.5713 46.0547 41.6306 46.103 41.6818V43.0557H46.0722C46.0619 43.2904 46.0517 43.5253 46.0414 43.7603C46.0317 44.2295 46.1075 44.9149 46.0106 45.3101V46.226C46.0004 46.4844 45.99 46.7427 45.9796 47.0009H45.9489V47.5646H45.9181V48.1283H45.8873C45.877 49.326 45.8668 50.5236 45.8565 51.7213L45.8257 52.6372H45.795V53.2008H45.7642V54.3282H45.7334V54.8919C45.6832 55.0962 45.7026 55.4399 45.7026 55.7019V57.1814C45.7231 57.1932 45.7437 57.205 45.7642 57.2167C45.8759 57.3417 46.4275 57.2872 46.657 57.2872H59.2479C59.292 57.1901 59.3916 57.036 59.4634 56.9701V43.3022C59.4634 42.8848 59.5198 42.3167 59.4326 41.9636V41.5762C59.4223 41.3296 59.4121 41.083 59.4018 40.8363H59.371C59.3403 40.085 59.3095 39.3335 59.2787 38.5818C59.1444 38.0751 59.076 37.4764 58.9401 36.9614L58.8786 36.398H58.8478V36.2921H58.817V36.2218H58.7862C58.776 36.1514 58.7657 36.0808 58.7554 36.0105H58.7247V35.9399H58.6939V35.8343H58.6629V35.7637H58.6323V35.6581H58.6014V35.5525H58.5706V35.4819H58.5398C58.5295 35.4234 58.5193 35.3647 58.509 35.3059C58.4885 35.2941 58.468 35.2825 58.4475 35.2706C58.4372 35.2237 58.4269 35.1766 58.4167 35.1297C58.3962 35.1181 58.3756 35.1063 58.3551 35.0944C58.3449 35.0475 58.3346 35.0005 58.3243 34.9535C58.3038 34.9419 58.2833 34.93 58.2628 34.9184C58.2525 34.8713 58.2423 34.8243 58.232 34.7775C58.2115 34.7657 58.191 34.7541 58.1704 34.7422C58.1602 34.6953 58.1499 34.6482 58.1397 34.6013C58.1191 34.5895 58.0986 34.5779 58.0781 34.566C58.0678 34.5191 58.0576 34.4722 58.0473 34.4251C58.0268 34.4135 58.0063 34.4017 57.9858 34.3901V34.3195C57.9447 34.2842 57.9037 34.2491 57.8626 34.2138V34.1433C57.8011 34.0848 57.7395 34.0261 57.678 33.9673V33.8967C57.6164 33.838 57.5548 33.7793 57.4933 33.7207V33.6502C57.4317 33.5914 57.3701 33.5327 57.3084 33.474V33.4036C57.2674 33.3683 57.2263 33.3333 57.1853 33.298C57.175 33.2745 57.1648 33.2509 57.1545 33.2274H57.0929C57.0519 33.1687 57.0109 33.11 56.9698 33.0514H56.9083L56.7851 32.8752H56.7236C56.6928 32.8283 56.662 32.7812 56.6312 32.7343H56.5697L56.4466 32.5581C56.4158 32.5465 56.385 32.5347 56.3542 32.5231C56.344 32.4994 56.3337 32.4759 56.3234 32.4525L56.1388 32.3821C56.1283 32.3587 56.1181 32.335 56.108 32.3116C56.0462 32.2881 55.9846 32.2647 55.9231 32.2412C55.9129 32.2178 55.9026 32.1941 55.8923 32.1707L55.7077 32.1003C55.6974 32.0769 55.6871 32.0532 55.6769 32.0297C55.4819 31.9359 55.287 31.842 55.0921 31.7479H54.9997V31.7128H54.9382V31.6776C54.8766 31.6657 54.8148 31.6541 54.7533 31.6423V31.607H54.6917V31.5719H54.5994V31.5366C54.466 31.5132 54.3326 31.4897 54.1992 31.4661C53.9733 31.3852 53.6923 31.3339 53.4603 31.2548C53.3372 31.2429 53.2141 31.2311 53.091 31.2195V31.1845H52.8755V31.1492H52.6908V31.1139H52.4138V31.0786H52.1058V31.0435H51.7672V31.0083C51.6707 30.9768 51.4743 31.059 51.4287 30.973V29.7753C51.6006 29.7036 51.913 29.74 52.1366 29.74H75.8716C75.9068 29.7802 75.8718 29.7541 75.9332 29.7753C75.9434 29.8106 75.9537 29.8458 75.964 29.8809C76.0111 29.9394 75.9946 30.0868 75.9947 30.198C75.9951 30.4803 76.0061 30.7892 75.9332 30.973C75.8203 30.9849 75.7075 30.9966 75.5946 31.0083V31.0435H75.2252V31.0786H74.9173V31.1139H74.7326V31.1492H74.5479V31.1845H74.3324V31.2195H74.1478V31.2548H73.9631V31.2901H73.809V31.3254H73.6243V31.3604H73.4704V31.3957H73.2857C72.9061 31.5248 72.5264 31.654 72.1467 31.7832V31.8185L71.962 31.8888V31.9241H71.9004V31.9594C71.8594 31.971 71.8183 31.9828 71.7773 31.9947L71.7465 32.065H71.685V32.1003H71.6234L71.5618 32.1707H71.5003C71.49 32.1941 71.4798 32.2178 71.4695 32.2412H71.4079V32.2763H71.3464V32.3116H71.2846L71.2231 32.3821H71.1615C71.141 32.4172 71.1205 32.4524 71.1 32.4878H71.0384C71.0076 32.5347 70.9768 32.5818 70.9461 32.6287H70.8845C70.8537 32.6756 70.8229 32.7226 70.7922 32.7696H70.7306C70.7101 32.8047 70.6896 32.8399 70.669 32.8752H70.6075C70.5767 32.9221 70.5459 32.9693 70.5151 33.0162H70.4536C70.4228 33.0631 70.392 33.1102 70.3612 33.1571H70.2997C70.2689 33.204 70.2381 33.2511 70.2073 33.298C70.1868 33.3096 70.1663 33.3214 70.1458 33.3333V33.4036C70.0945 33.4505 70.0431 33.4975 69.9917 33.5445V33.6149C69.9404 33.662 69.8891 33.709 69.8378 33.7558V33.8264C69.7865 33.8733 69.7352 33.9203 69.6839 33.9673V34.0376H69.6531C69.6326 34.0729 69.6121 34.1081 69.5915 34.1433C69.571 34.1551 69.5505 34.167 69.53 34.1786V34.2491L69.4376 34.3195V34.3901C69.4171 34.4017 69.3966 34.4135 69.3761 34.4251L69.3453 34.531H69.3145C69.3043 34.5779 69.294 34.6248 69.2837 34.6719H69.253C69.2427 34.707 69.2324 34.7422 69.2222 34.7775C69.2017 34.7891 69.1811 34.801 69.1606 34.8126C69.1504 34.8597 69.1401 34.9067 69.1298 34.9535C69.1093 34.9653 69.0888 34.9772 69.0683 34.9888C69.058 35.0357 69.0478 35.0828 69.0375 35.1297C69.017 35.1415 68.9965 35.1531 68.9759 35.165C68.9657 35.2003 68.9554 35.2353 68.9452 35.2706H68.9144L68.8836 35.4468H68.8528V35.5172H68.822C68.8118 35.5877 68.8015 35.6581 68.7911 35.7287H68.7603V35.8343H68.7295V35.9046H68.6987C68.6782 36.0105 68.6577 36.1162 68.6372 36.2218H68.6064V36.2921H68.5756V36.398H68.5448L68.5141 36.7149H68.4833V36.8558H68.4525V36.9967H68.4217V37.1376H68.3909V37.3138C68.29 37.6758 68.2695 38.1712 68.1755 38.5468V38.9342H68.1447V39.2864H68.1139V39.6739H68.0831V40.8012H68.0523V41.3649C67.9851 41.6389 68.0216 42.0869 68.0216 42.4217V77.0844C68.0216 77.3567 67.9993 77.7156 68.0523 77.9297V78.4934H68.0831V79.0571H68.1139V79.4445H68.1447V79.7969H68.1755L68.2678 81.0297H68.2986C68.3088 81.1824 68.3191 81.3351 68.3294 81.4877H68.3601C68.3704 81.5934 68.3807 81.6991 68.3909 81.8048H68.4217L68.4525 82.1217H68.4833V82.2627H68.5141V82.4389H68.5448V82.5445H68.5756V82.6501H68.6064V82.7558H68.6372C68.6474 82.8263 68.6577 82.8967 68.668 82.9672H68.6987V83.0376H68.7295C68.7808 83.2372 68.8322 83.4369 68.8836 83.6366C68.9041 83.6482 68.9246 83.66 68.9452 83.6718V83.7422C68.9657 83.754 68.9862 83.7656 69.0067 83.7775V83.8478C69.0272 83.8596 69.0478 83.8713 69.0683 83.8831C69.0785 83.93 69.0888 83.9771 69.0991 84.024H69.1298C69.1401 84.0593 69.1504 84.0944 69.1606 84.1296C69.1811 84.1415 69.2017 84.1531 69.2222 84.1649C69.2324 84.2118 69.2427 84.2589 69.253 84.3058C69.2735 84.3175 69.294 84.3293 69.3145 84.3411V84.4115C69.335 84.4233 69.3556 84.4349 69.3761 84.4468V84.5171C69.3966 84.529 69.4171 84.5406 69.4376 84.5524V84.6227C69.4582 84.6346 69.4787 84.6464 69.4992 84.658V84.7286C69.5197 84.7402 69.5402 84.7521 69.5608 84.7637V84.8342H69.5915C69.6018 84.8695 69.6121 84.9046 69.6223 84.9399C69.6428 84.9517 69.6634 84.9633 69.6839 84.9752V85.0455C69.7147 85.0689 69.7454 85.0926 69.7762 85.1161V85.1864C69.7967 85.1982 69.8173 85.2099 69.8378 85.2217V85.292C69.8583 85.3039 69.8788 85.3157 69.8993 85.3273V85.3979H69.9301C69.9404 85.433 69.9506 85.4682 69.9609 85.5035C69.9814 85.5151 70.0019 85.527 70.0225 85.5388V85.6092C70.0534 85.6326 70.0843 85.6561 70.115 85.6797V85.7148H70.1766C70.1971 85.7501 70.2176 85.7853 70.2381 85.8204H70.2997L70.3612 85.9263H70.4228C70.4433 85.9613 70.4638 85.9966 70.4844 86.0319H70.5459C70.5664 86.0672 70.587 86.1023 70.6075 86.1376H70.669C70.6896 86.1728 70.7101 86.208 70.7306 86.2432H70.7922L70.8537 86.349H70.9153C70.9358 86.3841 70.9563 86.4193 70.9768 86.4547C71.0179 86.4663 71.0589 86.4781 71.1 86.49L71.1307 86.5603C71.1615 86.5721 71.1923 86.5838 71.2231 86.5956V86.6307C71.2641 86.6425 71.3053 86.6543 71.3464 86.6659C71.3566 86.6894 71.3669 86.7131 71.3772 86.7365C71.4182 86.7481 71.4592 86.76 71.5003 86.7716C71.5105 86.7952 71.5208 86.8187 71.5311 86.8421H71.5926V86.8774H71.6542L71.685 86.9478H71.7465C71.7568 86.9712 71.767 86.9947 71.7773 87.0183H71.8389V87.0534C71.8799 87.0652 71.9209 87.0769 71.962 87.0887V87.124H72.0543V87.1593H72.1467V87.1943H72.239V87.2296H72.3313V87.2649H72.4545V87.3H72.5468V87.3352H72.6393V87.3705H72.7317V87.4058H72.824V87.4409C72.9471 87.4645 73.0703 87.4881 73.1934 87.5114C73.4286 87.6028 73.7195 87.6738 73.9631 87.758H74.1478C74.3191 87.8163 74.5639 87.8433 74.7326 87.8989H75.0712V87.9342H75.5023V87.9693H75.7485V88.0045C75.8101 88.028 75.8716 88.0515 75.9332 88.0751C76.0244 88.3114 75.9963 88.7531 75.9947 89.0966C75.9605 89.1176 75.9465 89.158 75.9332 89.1672H75.8716V89.2022C75.7177 89.2141 75.5638 89.2259 75.4099 89.2375C74.9663 89.3804 74.2885 89.3079 73.7474 89.3079H51.4594C51.4053 88.9617 51.4283 88.4784 51.4287 88.0751H51.4594V88.0398C51.5389 88.0363 51.5662 88.0345 51.6133 88.0045V87.9693H51.8596V87.9342H52.3215V87.8989H52.66C52.8803 87.8248 53.1791 87.7984 53.3988 87.7227H53.5836V87.6876C53.676 87.6758 53.7683 87.664 53.8607 87.6524V87.6171H53.9838V87.5818H54.1069V87.5467C54.2403 87.5231 54.3737 87.4995 54.507 87.4762V87.4409H54.5686V87.4058C54.6302 87.394 54.6917 87.3822 54.7533 87.3705V87.3352C54.8046 87.3236 54.8561 87.3118 54.9074 87.3V87.2649H54.9689V87.2296H55.0613V87.1943H55.1228V87.1593H55.2152V87.124H55.3075V87.0887L55.4922 87.0183V86.9831C55.5332 86.9712 55.5743 86.9596 55.6153 86.9478L55.6461 86.8774C55.7077 86.8538 55.7692 86.8302 55.8308 86.8069L55.8616 86.7365H55.9231V86.7012H55.9847L56.0462 86.6307H56.108C56.1181 86.6072 56.1283 86.5838 56.1388 86.5603H56.2003L56.2619 86.49H56.3234L56.385 86.3841H56.4466C56.4876 86.3254 56.5286 86.2667 56.5697 86.2081H56.6312C56.662 86.161 56.6928 86.114 56.7236 86.0672H56.7851C56.8159 86.0201 56.8467 85.9731 56.8775 85.9263H56.939L57.0622 85.7501H57.1237L57.1545 85.6797L57.3392 85.5035C57.3494 85.4682 57.3597 85.433 57.37 85.3979C57.442 85.3273 57.5139 85.2568 57.5856 85.1864V85.1161L57.8319 84.8695V84.799C57.8729 84.7637 57.9139 84.7286 57.955 84.6933V84.6227C57.9755 84.6111 57.996 84.5993 58.0165 84.5877L58.0473 84.4818H58.0781L58.1089 84.3411C58.1294 84.3293 58.1499 84.3175 58.1704 84.3058C58.1807 84.2589 58.191 84.2118 58.2012 84.1649C58.2217 84.1531 58.2423 84.1415 58.2628 84.1296V84.0593C58.2833 84.0475 58.3038 84.0359 58.3243 84.024C58.3346 83.9771 58.3449 83.93 58.3551 83.8831C58.3756 83.8713 58.3962 83.8596 58.4167 83.8478V83.7775C58.4372 83.7656 58.4577 83.754 58.4782 83.7422V83.6718H58.509V83.566H58.5398V83.4956H58.5706C58.5911 83.3899 58.6117 83.2842 58.6323 83.1785H58.6629V83.1082H58.6939C58.7144 83.0025 58.7349 82.8968 58.7554 82.791H58.7862V82.7207H58.817V82.6148H58.8478C58.858 82.521 58.8683 82.4272 58.8786 82.3332C58.9527 82.0829 59.0232 81.7763 59.094 81.523V81.3468C59.1683 81.0739 59.2084 80.7054 59.2787 80.431L59.3403 78.74H59.371C59.3813 78.5052 59.3916 78.2704 59.4018 78.0356V77.6481H59.4326V77.0844C59.4951 76.8303 59.4634 76.412 59.4634 76.098V62.5007C59.3899 62.201 59.4837 61.76 59.4326 61.4087C59.365 60.9426 59.4024 60.3139 59.4018 59.7882C59.3486 59.7527 59.2707 59.6245 59.2479 59.612H32.8962V59.6473C32.8613 59.6875 32.8841 59.6475 32.8654 59.7177C32.8347 59.7295 32.8039 59.7413 32.7731 59.7529V75.7809C32.7731 76.0531 32.7511 76.4122 32.8039 76.6264V77.1901H32.8347V78.0706C32.8449 78.3409 32.8552 78.6109 32.8654 78.8809H32.8962V79.2683L32.927 79.7969H32.9578L32.9886 80.5366C33.0547 80.7965 33.0744 81.1565 33.1425 81.4172V81.6286H33.1732V81.7696H33.204L33.2348 82.0161H33.2656V82.157H33.2964V82.2979H33.3271V82.4036H33.3581L33.4505 82.8967H33.4812V82.9672H33.512C33.5223 83.0376 33.5325 83.1082 33.5428 83.1785H33.5736C33.5941 83.2841 33.6146 83.3898 33.6351 83.4956H33.6659V83.566H33.6967V83.6718H33.7275V83.7775H33.7583V83.8478C33.7788 83.8596 33.7993 83.8713 33.8198 83.8831C33.8403 83.9534 33.8609 84.0239 33.8814 84.0944C33.9019 84.1062 33.9224 84.118 33.9429 84.1296C33.9635 84.2002 33.984 84.2707 34.0045 84.3411C34.025 84.3528 34.0455 84.3646 34.0661 84.3762C34.0763 84.4233 34.0866 84.4703 34.0968 84.5171C34.1174 84.529 34.1379 84.5406 34.1584 84.5524C34.1789 84.6227 34.1994 84.6932 34.22 84.7637C34.2405 84.7755 34.261 84.7873 34.2815 84.799V84.8695L34.7126 85.3273V85.3979C34.7742 85.4566 34.8357 85.5153 34.8973 85.5739C34.9999 85.7032 35.1025 85.8323 35.2051 85.9613H35.2667C35.2769 85.985 35.2872 86.0085 35.2974 86.0319C35.3282 86.0438 35.359 86.0554 35.3898 86.0672C35.4206 86.1141 35.4513 86.1611 35.4821 86.2081H35.5437C35.5642 86.2432 35.5847 86.2784 35.6052 86.3138H35.6668C35.6976 86.3606 35.7284 86.4076 35.7592 86.4547H35.8207C35.8412 86.49 35.8619 86.525 35.8825 86.5603H35.944C35.9645 86.5956 35.9851 86.6307 36.0056 86.6659H36.0671L36.1287 86.7365H36.1903V86.7716H36.2518V86.8069H36.3134V86.8421H36.3749V86.8774C36.416 86.889 36.457 86.9009 36.4981 86.9125V86.9478H36.5596V86.9831H36.6212V87.0183H36.6827V87.0534H36.7443V87.0887H36.8059V87.124C36.8469 87.1356 36.8879 87.1474 36.929 87.1593V87.1943H36.9905V87.2296C37.0624 87.2414 37.1342 87.2532 37.2062 87.2649V87.3H37.2985V87.3352H37.3909V87.3705H37.4832V87.4058H37.5756V87.4409C37.6782 87.4645 37.7808 87.4881 37.8834 87.5114V87.5467L38.2835 87.6171V87.6524H38.4068V87.6876H38.5299V87.7227C38.6223 87.7346 38.7146 87.7464 38.8069 87.758V87.7933H38.9916C39.2191 87.8714 39.5341 87.8942 39.7613 87.9693H40.5V88.0045H40.5616V88.0398H40.6539V88.0751C40.7269 88.1403 40.7391 88.1363 40.7463 88.2864C40.8365 88.3998 40.7552 89.0178 40.7463 89.1672C40.6847 89.1788 40.6232 89.1906 40.5616 89.2022V89.2375L38.1912 89.3079C37.8167 89.3079 37.3086 89.3744 36.9905 89.2728C35.5234 89.2844 34.056 89.2961 32.5884 89.3079C27.2941 89.2962 21.9991 89.2846 16.7035 89.2728V89.2375C16.5496 89.2257 16.3957 89.2139 16.2418 89.2022L16.211 88.7795H16.1803V88.1102C16.254 88.0744 16.3142 88.0461 16.3957 88.0045V87.9693H16.8883V87.9342H17.3809C17.7605 87.8636 18.1402 87.7931 18.5199 87.7227V87.6876C18.602 87.6758 18.6841 87.664 18.7662 87.6524C18.9056 87.5981 19.0907 87.5295 19.2279 87.4762L19.5666 87.4058V87.3705H19.6282V87.3352C19.7205 87.2999 19.8129 87.2647 19.9052 87.2296V87.1943H19.9668V87.1593C20.0078 87.1474 20.0489 87.1357 20.0899 87.124V87.0887H20.1822V87.0534L20.3669 86.9831V86.9478H20.4285V86.9125C20.4695 86.9009 20.5106 86.889 20.5516 86.8774C20.5619 86.8538 20.5721 86.8303 20.5824 86.8069C20.6234 86.7952 20.6645 86.7835 20.7057 86.7716L20.7365 86.7012H20.798C20.8083 86.6778 20.8186 86.6543 20.8288 86.6307H20.8904V86.5956H20.9519C20.9622 86.5721 20.9725 86.5485 20.9827 86.525H21.0443L21.0751 86.4547H21.1366C21.1469 86.4312 21.1571 86.4076 21.1674 86.3841C21.2084 86.3725 21.2495 86.3607 21.2905 86.349C21.3008 86.3254 21.311 86.3019 21.3213 86.2785H21.3829C21.4342 86.2081 21.4855 86.1377 21.5368 86.0672H21.5675C21.5778 86.0438 21.5881 86.0201 21.5983 85.9966H21.6599L21.9679 85.6092C22.0089 85.5739 22.0499 85.5388 22.091 85.5035V85.4683H22.1525L22.3372 85.2217L22.4296 85.1514V85.0808C22.4501 85.0689 22.4706 85.0573 22.4911 85.0455C22.5014 85.0104 22.5116 84.9752 22.5219 84.9399H22.5527V84.8695C22.5835 84.8458 22.6142 84.8223 22.645 84.799V84.7286H22.6758L22.7066 84.6227C22.7271 84.6111 22.7476 84.5993 22.7681 84.5877V84.5171L22.8605 84.4468V84.3762C22.881 84.3646 22.9015 84.3528 22.922 84.3411V84.2706C22.9426 84.2589 22.9631 84.2471 22.9836 84.2353C22.9939 84.2002 23.0041 84.165 23.0144 84.1296H23.0452L23.1375 83.8128H23.1683V83.7422H23.1993V83.6718H23.23V83.6013H23.2608C23.2813 83.5309 23.3019 83.4605 23.3224 83.39H23.3532V83.2841H23.3839V83.2138H23.4147V83.1434H23.4455V83.0729H23.4763C23.4968 82.9554 23.5173 82.838 23.5378 82.7207H23.5686V82.6148H23.5994V82.5092H23.6302V82.4036H23.661V82.2979H23.6917L23.7533 81.9455H23.7841C23.7943 81.8165 23.8046 81.6873 23.8149 81.5581C23.8719 81.3421 23.9131 81.0371 23.9688 80.8184V80.431H23.9995V80.0786H24.0303V79.6911H24.0611V78.564H24.0919C24.1021 78.3174 24.1124 78.0708 24.1227 77.8241V77.4366C24.1973 77.1327 24.1534 76.64 24.1534 76.2742V59.7882C24.0687 59.7378 23.934 59.6239 23.8764 59.5417H0.0490177C-0.0376795 59.2726 0.0167176 58.6549 0.0182186 58.3087C0.120819 58.2647 0.300673 58.2719 0.449215 58.2734C0.552214 58.1763 0.966016 58.2562 1.12647 58.2031V58.1678H1.37277V58.1325H1.61905C1.84862 58.0555 2.13689 58.0023 2.35786 57.9212C2.49124 57.8978 2.62465 57.8743 2.75808 57.8507V57.8156C2.86068 57.7922 2.96328 57.7686 3.06588 57.745V57.7098H3.15824V57.6747H3.2506V57.6394H3.34294V57.6041H3.4353V57.5691C3.5379 57.5454 3.6405 57.5219 3.7431 57.4985V57.4632H3.80468V57.4281C3.84572 57.4162 3.88676 57.4045 3.92782 57.3929V57.3576C3.96886 57.346 4.0099 57.3342 4.05096 57.3223V57.2872H4.11251V57.2519H4.17427V57.2167H4.23583V57.1814H4.2974V57.1463H4.35896V57.111H4.42054V57.0757H4.4821V57.0405H4.54368L4.60524 56.9701H4.66682L4.6976 56.8998H4.75916L4.82074 56.7939H4.8823C4.90285 56.7588 4.92337 56.7236 4.94388 56.6883H5.00546C5.03622 56.6414 5.06702 56.5943 5.0978 56.5474H5.15936C5.1799 56.5121 5.20042 56.477 5.22094 56.4417H5.2825C5.30303 56.4064 5.32356 56.3712 5.34408 56.3361H5.40564C5.42617 56.3008 5.4467 56.2656 5.46722 56.2305H5.5288C5.53906 56.2068 5.54932 56.1833 5.55958 56.1599L5.74428 55.9837V55.9133C5.78532 55.8781 5.82636 55.8428 5.86741 55.8077C5.89819 55.7606 5.92898 55.7136 5.95977 55.6668H5.99055V55.5962L6.23683 55.3497V55.2793C6.28813 55.2322 6.33943 55.1852 6.39073 55.1384V55.0678C6.41125 55.0562 6.43179 55.0444 6.45231 55.0326C6.46257 54.9975 6.47283 54.9623 6.48309 54.9269H6.51387V54.8566C6.53441 54.8447 6.55493 54.8331 6.57545 54.8213V54.7509C6.59597 54.7391 6.61649 54.7273 6.63701 54.7157V54.6451C6.65753 54.6335 6.67807 54.6216 6.69859 54.61V54.5394C6.71911 54.5278 6.73963 54.516 6.76015 54.5042V54.4338C6.78067 54.422 6.80121 54.4104 6.82173 54.3985V54.3282C6.84225 54.3163 6.86279 54.3047 6.88329 54.2929V54.2223C6.90381 54.2107 6.92433 54.1989 6.94487 54.1873V54.1167H6.97565V54.0464H7.00643V53.9407H7.03721V53.8701H7.06797V53.7645H7.09875C7.10901 53.7176 7.11927 53.6705 7.12953 53.6236H7.16031V53.518H7.19111C7.20135 53.4711 7.21163 53.424 7.22189 53.3771H7.25267V53.2714H7.28345V53.2008H7.31425V53.0952H7.34503V53.0246H7.37581L7.40659 52.7077H7.43739V52.5668H7.46817V52.4259H7.49895V52.285H7.52973C7.54 52.1793 7.55026 52.0736 7.56051 51.9679H7.59131L7.65287 51.2986C7.77357 50.8262 7.78003 50.2253 7.89914 49.7487V48.0579H7.92992C7.94018 47.6586 7.95045 47.2594 7.96072 46.8602V46.3669C8.05261 45.992 7.99148 45.2056 7.9915 44.7465V14.0643C7.9915 13.4629 8.05219 12.727 7.92992 12.2326V11.8803H7.89914V11.3167C7.89914 11.0134 7.92865 10.6095 7.86836 10.3656V9.80186H7.83747V9.23831H7.80667V8.95649H7.77589V8.67468H7.74511V8.39287H7.71433V8.11106C7.65821 7.89457 7.61933 7.58863 7.56043 7.3713C7.5502 7.25389 7.53994 7.13647 7.52965 7.01905H7.49887C7.48861 6.96033 7.47835 6.90162 7.46809 6.84291H7.43731V6.77245H7.40655V6.66678H7.37577V6.59632H7.34499L7.31421 6.42018H7.28341V6.31453H7.25263V6.24407H7.22187C7.21161 6.17362 7.20135 6.10316 7.19109 6.03269H7.16029C7.1398 5.96226 7.11928 5.8918 7.09873 5.82134H7.06797V5.75088H7.03717V5.68044H7.00639C6.98587 5.60998 6.96535 5.53952 6.94483 5.46907L6.88325 5.43385L6.85243 5.29295H6.82165V5.22249H6.79087V5.15204H6.76017V5.08158L6.69861 5.01114V4.94068L6.63703 4.90546V4.83501L6.54469 4.76455V4.69411L6.48311 4.65887V4.58841L6.39075 4.51795V4.44752L6.29841 4.37706C6.28814 4.34185 6.27787 4.30662 6.26761 4.27138L6.20605 4.23614V4.1657L6.14447 4.13046V4.06003L6.05213 3.98957V3.91911L5.99055 3.88389L5.86741 3.70776H5.80585L5.55958 3.39064H5.49802L5.25174 3.07352H5.19016C5.1799 3.05002 5.16963 3.02654 5.15936 3.00306H5.12858L5.06702 2.89738L4.94388 2.86214L4.9131 2.79168L4.82074 2.75646V2.72124L4.6976 2.68603L4.66682 2.61557L4.54368 2.58033L4.51288 2.50989L4.38974 2.47465C4.37951 2.45117 4.36925 2.42769 4.35896 2.40421H4.2974L4.26662 2.33375L4.14349 2.29851V2.2633L3.95877 2.19284V2.1578H3.86641V2.12258H3.80485V2.08734H3.71249V2.05212L3.58925 2.01679V1.98166H3.49691V1.94644H3.43534V1.9112H3.34298V1.87599L3.21984 1.84077V1.80553L2.51176 1.62939V1.59417H2.38862V1.55898H2.26552V1.52371H2.11162V1.4885H1.92692V1.45326H1.74226V1.41804H1.52669V1.38282H1.34197V1.34758H1.06491V1.31236H0.757111C0.54716 1.24409 0.288228 1.24481 0.0182376 1.24186V0.0442157C0.237688 -0.000449091 0.551701 0.00899751 0.818633 0.00899751H23.9995C24.1249 0.00899751 24.3591 -0.0267343 24.4304 0.0442157C24.6052 0.207689 24.5279 0.807113 24.5229 1.20668C24.4424 1.25537 24.4707 1.26899 24.338 1.27714C24.267 1.34445 24.1393 1.27643 24.0302 1.31236V1.3476H23.7224V1.38282H23.3839V1.41806H23.1067V1.45328H22.922V1.4885H22.7373L21.352 1.84077V1.87599H21.2289V1.91123L21.1058 1.94644V1.98166L20.9519 2.01688V2.05212H20.8903V2.08734H20.798V2.12256L20.6748 2.15778V2.19299H20.6131V2.22823H20.5207V2.26345L20.3361 2.33391V2.36913H20.2745V2.40437L20.0898 2.47481L20.059 2.54526H19.9975V2.58048H19.9359V2.61572H19.8744L19.8128 2.68618H19.7512L19.7205 2.75662H19.6589L19.5973 2.82708L19.4742 2.8623C19.4537 2.89754 19.4331 2.93276 19.4125 2.96797H19.3819C19.3714 2.99147 19.3612 3.01487 19.3509 3.03843H19.2894L19.0739 3.32024H19.0123C18.9508 3.40243 18.8893 3.48462 18.8277 3.56684L18.7353 3.60206L18.6122 3.77819L18.5506 3.81341V3.88387L18.4275 3.98955V4.06L18.3043 4.16568C18.2941 4.20089 18.2838 4.23612 18.2735 4.27136L18.212 4.30658V4.37703L18.0888 4.48271V4.55317L18.0273 4.58839V4.62363L17.9657 4.65885V4.72928L17.9041 4.76452L17.8733 4.8702H17.8426C17.822 4.94065 17.8015 5.0111 17.781 5.08155L17.7194 5.1168C17.6989 5.18723 17.6784 5.25768 17.6578 5.32815L17.5963 5.36339L17.5655 5.50428L17.5039 5.5395L17.4424 5.75086L17.3808 5.7861V5.85656H17.35V5.96223H17.3192V6.06789H17.2884V6.17356H17.2577V6.27924H17.2269V6.42014H17.1961V6.52581H17.1653V6.63151H17.1345V6.73719H17.1038V6.84282H17.073V6.9485H17.0422V7.12463C16.9679 7.3974 16.9274 7.76589 16.8575 8.04051L16.8267 8.78027H16.7959V9.16785C16.7155 9.4885 16.6913 9.90388 16.6112 10.2246V29.5991C16.7133 29.6609 16.7457 29.6717 16.919 29.6697C16.9887 29.7389 17.1182 29.6701 17.2268 29.7049C17.5562 29.8103 18.1566 29.74 18.5506 29.74H34.4046C34.7411 29.7311 35.2739 29.6339 35.6052 29.74H39.2686C39.7571 29.74 40.307 29.7291 40.7463 29.7753ZM18.643 57.2872V57.2167L18.3967 56.9701L18.3659 56.8998H18.3043C18.2017 56.7705 18.0991 56.6412 17.9965 56.5121H17.9657C17.9555 56.4886 17.9452 56.4652 17.935 56.4417H17.8733C17.863 56.4183 17.8528 56.3948 17.8425 56.3712C17.7809 56.3126 17.7194 56.254 17.6578 56.1952V56.1246C17.6167 56.0895 17.5757 56.0543 17.5346 56.019V55.9486C17.4833 55.9015 17.432 55.8545 17.3807 55.8077V55.7371C17.3397 55.7019 17.2986 55.6668 17.2576 55.6315V55.5612L17.1345 55.4553V55.385C17.1139 55.3731 17.0934 55.3615 17.0729 55.3497V55.3144C17.0524 55.3028 17.0318 55.2909 17.0113 55.2793V55.2087C16.9908 55.1971 16.9703 55.1853 16.9498 55.1735V55.1031C16.919 55.0797 16.8882 55.0561 16.8574 55.0326V54.9622C16.8369 54.9504 16.8164 54.9388 16.7958 54.9269V54.8566C16.7651 54.8331 16.7343 54.8094 16.7035 54.786V54.7157C16.683 54.7038 16.6624 54.6922 16.6419 54.6804V54.61C16.6111 54.5863 16.5804 54.5628 16.5496 54.5394V54.4691C16.529 54.4573 16.5085 54.4457 16.488 54.4338V54.3632C16.4675 54.3516 16.447 54.3398 16.4264 54.3282C16.3546 54.1404 16.2828 53.9525 16.2109 53.7645H16.1802V53.6939H16.1494V53.6236H16.1186V53.553H16.0878V53.4827H16.057C16.0365 53.4123 16.016 53.3419 15.9954 53.2714H15.9647V53.1656H15.9339V53.0952H15.9031V52.9896H15.8723V52.919H15.8415C15.8313 52.8487 15.821 52.7781 15.8107 52.7077H15.7799V52.6372H15.7492V52.5315H15.7184V52.4612H15.6876C15.6773 52.4025 15.6671 52.3437 15.6568 52.285H15.626V52.1794H15.5952L15.5029 51.1226H15.4721C15.4618 51.0169 15.4516 50.9112 15.4413 50.8055H15.4105L15.3797 50.4884H15.349V50.3474H15.3182L15.2874 50.0305H15.2566V49.8191C15.191 49.5676 15.166 49.2261 15.1027 48.9738V47.8464H15.0719V47.5646H15.0411V47.2828H15.0104V47.0362H14.9796V46.7544H14.9488V45.6273H14.918V45.0636C14.8312 44.7101 14.8873 44.1428 14.8872 43.725C14.877 42.7035 14.8667 41.6819 14.8564 40.6603V18.3267C14.8462 16.5421 14.8359 14.7573 14.8257 12.9723C14.8257 12.5858 14.7769 12.063 14.8564 11.7394V11.1758H14.8872V10.7883C14.8975 10.5417 14.9077 10.2951 14.918 10.0485H14.9488V9.4849C15.0309 9.15684 15.0213 8.72004 15.1027 8.39285V8.00538H15.1335C15.1437 7.7588 15.154 7.51222 15.1643 7.26564C15.2977 6.76452 15.3925 6.18475 15.5337 5.68044C15.5645 5.4691 15.5953 5.25774 15.626 5.04636H15.6568C15.6774 4.97592 15.6979 4.90547 15.7184 4.83501H15.7492V4.76455H15.78V4.69411H15.8108V4.62365H15.8415V4.51802H15.8723C15.8928 4.44758 15.9134 4.37713 15.9339 4.30667H15.9647V4.23621H15.9955L16.057 4.02488H16.0878L16.1186 3.91918L16.1802 3.88396V3.81343L16.2417 3.77821V3.70776C16.2725 3.68429 16.3033 3.66081 16.3341 3.6373V3.56686H16.3649L16.3957 3.46116L16.4572 3.42594V3.35548L16.5496 3.28505V3.21459H16.5804L16.6111 3.10891L16.6727 3.07369V3.00324L16.7958 2.89756V2.8271L16.8574 2.79186V2.75664L16.919 2.72142V2.65103H16.9498C16.9942 2.58942 17.0197 2.5659 17.0421 2.4749H17.1345C17.1594 2.4286 17.1562 2.43342 17.1961 2.40446V2.36922H7.37577V2.40446C7.41681 2.43966 7.45786 2.47488 7.49891 2.51014V2.58057L7.62205 2.68627V2.75671L7.74519 2.86239V2.93284L7.86833 3.03852V3.10885L7.99147 3.21452V3.28498L8.08382 3.35542V3.42597L8.14538 3.46118L8.17616 3.56688H8.20694V3.63732L8.26852 3.67256V3.74309L8.3301 3.77833V3.84876L8.39166 3.884V3.95446L8.45322 3.98968V4.06014L8.5148 4.09536V4.16582L8.57638 4.20103V4.27149L8.63794 4.30671V4.37717H8.66874V4.44763H8.69952V4.5533H8.7303L8.76108 4.69422H8.79186V4.79988H8.82264V4.87034H8.85344L8.88422 5.01125H8.915V5.11693H8.9458L8.97658 5.25782H9.00736V5.36352H9.03814V5.43396H9.06894C9.07917 5.53967 9.08943 5.64537 9.09972 5.75108H9.1305L9.16128 6.0682H9.19206V6.2091H9.22286C9.23312 6.3148 9.24338 6.42051 9.25364 6.52622H9.28442C9.32546 6.99587 9.3665 7.46559 9.40756 7.93539H9.43834V8.18196H9.46914V8.46377H9.49997V8.74559H9.53075V9.13308H9.56153V9.48535H9.59233V9.87284H9.62311V10.4361H9.65389V10.9997C9.74635 11.3758 9.68465 12.0642 9.68467 12.5144V47.3181C9.68467 47.6215 9.71399 48.0251 9.65389 48.2692V49.3965H9.62311L9.59233 50.1362V50.5236C9.50791 50.86 9.52235 51.3144 9.43843 51.651V52.0384H9.40765L9.37687 52.7781H9.34607V52.8839H9.31529V52.9543H9.28449C9.264 53.0599 9.24348 53.1656 9.22293 53.2714H9.19213V53.3418H9.16135C9.14083 53.4474 9.12031 53.5531 9.09979 53.6589H9.06901V53.7292H9.03821C9.02795 53.7998 9.01769 53.8702 9.00743 53.9407H8.97665V54.0816H8.94587V54.1873H8.91508L8.8843 54.4338H8.85352C8.84326 54.516 8.83299 54.5982 8.82272 54.6804H8.79194V54.8213H8.76116V54.9269H8.73038C8.70986 54.9975 8.68934 55.068 8.66882 55.1384H8.63794V55.2087H8.60716V55.2793H8.57638C8.55586 55.3497 8.53533 55.4201 8.5148 55.4906C8.49428 55.5024 8.47376 55.514 8.45322 55.5259C8.44296 55.5728 8.43271 55.6197 8.42246 55.6668H8.39166V55.7371H8.36088V55.8077H8.3301V55.8781L8.26852 55.9486V56.019C8.23774 56.0424 8.20696 56.0659 8.17616 56.0895V56.1599C8.10434 56.2302 8.03252 56.3007 7.96068 56.3712V56.4417L7.77597 56.6179V56.6883L7.59127 56.8645V56.9348C7.56049 56.9583 7.52969 56.9819 7.49891 57.0054C7.43735 57.0992 7.37578 57.1931 7.31421 57.2872H18.643ZM16.6112 31.0435C16.6009 31.0786 16.5906 31.1138 16.5804 31.1492H16.5496V31.2548H16.5188V33.2627H16.5496V42.7739C16.5496 43.1499 16.503 43.6582 16.5804 43.9715V44.5352H16.6112V45.6273H16.642V45.9794H16.6727V46.3669C16.7625 46.7251 16.7373 47.2097 16.8266 47.5646V47.8464H16.8574C16.8779 48.2104 16.8985 48.5745 16.919 48.9385H16.9498V49.0794C17.0614 49.4378 17.1466 49.8854 17.2576 50.2418V50.3827H17.2884V50.5236H17.3191V50.6646H17.3499V50.8055H17.3807V50.9111H17.4115V51.052H17.4423V51.1226H17.4731V51.2282H17.5038V51.2986H17.5346V51.4044H17.5655C17.5757 51.4513 17.586 51.4983 17.5963 51.5453H17.627V51.651H17.6578C17.6681 51.6979 17.6784 51.7448 17.6886 51.7919H17.7194C17.7604 51.9328 17.8015 52.0737 17.8425 52.2146C17.8631 52.2263 17.8836 52.2381 17.9041 52.2497C17.9246 52.3203 17.9451 52.3908 17.9657 52.4612C17.9862 52.4728 18.0067 52.4846 18.0272 52.4963C18.0478 52.5668 18.0683 52.6373 18.0888 52.7077C18.1093 52.7194 18.1299 52.7312 18.1504 52.743C18.1607 52.7899 18.1709 52.8369 18.1812 52.8839C18.2017 52.8956 18.2222 52.9074 18.2427 52.919C18.2633 52.9896 18.2838 53.0601 18.3043 53.1305H18.3351C18.3454 53.1656 18.3556 53.2008 18.3659 53.2361C18.3864 53.2477 18.4069 53.2596 18.4274 53.2714V53.3418C18.4685 53.377 18.5096 53.4123 18.5506 53.4474V53.518C18.5916 53.553 18.6327 53.5882 18.6737 53.6236V53.6939L18.7969 53.7998V53.8701C18.8379 53.9054 18.879 53.9406 18.92 53.9758V54.0464C18.9611 54.0816 19.0021 54.1167 19.0431 54.152V54.2223C19.1867 54.3751 19.3304 54.5278 19.4742 54.6804V54.7509C19.5358 54.8094 19.5973 54.8681 19.6589 54.9269C19.741 55.0326 19.823 55.1383 19.9051 55.244H19.9667C19.9872 55.2793 20.0077 55.3144 20.0282 55.3497H20.0898C20.1206 55.3966 20.1514 55.4437 20.1821 55.4906H20.2437C20.2642 55.5259 20.2847 55.5611 20.3053 55.5962H20.3668C20.3873 55.6315 20.4079 55.6667 20.4284 55.7019H20.4899L20.5515 55.8077H20.6131C20.6336 55.8428 20.6542 55.878 20.6748 55.9133H20.7364L20.7672 55.9837C20.8082 55.9956 20.8492 56.0074 20.8903 56.019V56.0543H20.9518V56.0895H21.0134V56.1246H21.075V56.1599H21.1365V56.1952H21.1981V56.2305C21.2391 56.2421 21.2802 56.2539 21.3212 56.2655V56.3008H21.3828V56.3361H21.4443V56.3712H21.5059V56.4064H21.5674V56.4417H21.629V56.477C21.67 56.4886 21.7111 56.5005 21.7521 56.5121V56.5474H21.8137V56.5826H21.9062V56.6179H21.9678V56.653H22.0601V56.6883H22.1217V56.7236H22.214V56.7588C22.2551 56.7705 22.2961 56.7823 22.3371 56.7939V56.8292H22.4295V56.8645H22.491V56.8998H22.5834V56.9348H22.6449V56.9701L23.1992 57.0405C23.4635 57.1291 23.7882 57.1774 24.1226 57.1814C24.1328 57.1463 24.1431 57.1111 24.1533 57.0757C24.2229 56.9842 24.179 56.6901 24.2149 56.5474H24.2457V41.9636H24.2149V41.5762H24.1841V41.224H24.1533V39.7092H24.1226V39.4273H24.0918V39.1455H24.061V38.8637H24.0302V38.5818H23.9994V38.3H23.9687V38.0184H23.9379V37.7366H23.9071V37.4547H23.8763V37.2785H23.8455V37.1023H23.8148V36.8911H23.784V36.7149H23.7532V36.5389H23.7224V36.3627H23.6916V36.257H23.6609V36.1865H23.6301V36.0808H23.5993V36.0105H23.5685C23.5583 35.9399 23.548 35.8696 23.5377 35.799H23.507L23.4762 35.6228H23.4454V35.5525H23.4146C23.3838 35.435 23.3531 35.3176 23.3223 35.2003C23.3018 35.1884 23.2812 35.1766 23.2607 35.165C23.2505 35.1181 23.2402 35.071 23.2299 35.0241C23.2094 35.0122 23.1887 35.0006 23.1682 34.9888V34.9184H23.1374V34.8479H23.1066C23.0964 34.8128 23.0861 34.7776 23.0759 34.7422C23.0553 34.7304 23.0348 34.7188 23.0143 34.7069C23.004 34.66 22.9938 34.6131 22.9835 34.566C22.963 34.5544 22.9425 34.5426 22.922 34.531C22.9117 34.4838 22.9014 34.4369 22.8912 34.3901C22.8707 34.3782 22.8501 34.3664 22.8296 34.3548V34.2842L22.7373 34.2138C22.727 34.1786 22.7168 34.1434 22.7065 34.1082L22.4603 33.8617V33.7911C22.3884 33.7207 22.3166 33.6503 22.2448 33.5798L22.214 33.474C22.1935 33.4624 22.173 33.4505 22.1525 33.4389C22.1012 33.3683 22.0499 33.2978 21.9986 33.2274H21.9368C21.8857 33.1571 21.8342 33.0865 21.7829 33.0162H21.7213L21.5367 32.7696H21.4751C21.4238 32.699 21.3725 32.6285 21.3212 32.5581H21.2596C21.2289 32.5112 21.1981 32.4643 21.1673 32.4172C21.1263 32.4056 21.0852 32.3938 21.0442 32.3821L20.9826 32.3116H20.9211L20.8903 32.2412H20.8287V32.2059H20.7672V32.1707H20.7056L20.6439 32.1003H20.5823C20.572 32.0769 20.5618 32.0532 20.5515 32.0297C20.5105 32.0181 20.4694 32.0063 20.4284 31.9947V31.9594C20.3668 31.9359 20.3053 31.9124 20.2437 31.8888V31.8538H20.1514V31.8185H20.0898V31.7832C20.0282 31.7716 19.9667 31.7598 19.9051 31.7479V31.7128H19.8436V31.6776C19.782 31.6657 19.7204 31.6541 19.6589 31.6423V31.607H19.5665V31.5719H19.505V31.5366H19.4125V31.5014C19.3306 31.4897 19.2483 31.4779 19.1662 31.4661V31.431H19.0123C18.3242 31.1789 17.5007 31.0527 16.6112 31.0435ZM23.4455 31.9594V32.0297C23.5276 32.1003 23.6096 32.1708 23.6917 32.2412V32.3116H23.7225C23.743 32.3469 23.7635 32.3821 23.7841 32.4172C23.8559 32.4878 23.9277 32.5583 23.9995 32.6287V32.699C24.0508 32.7462 24.1021 32.7931 24.1534 32.84V32.9105C24.1739 32.9221 24.1945 32.934 24.215 32.9456L24.2458 33.0514H24.2765V33.1218C24.2971 33.1336 24.3176 33.1452 24.3381 33.1571V33.2274C24.3586 33.2393 24.3791 33.2509 24.3997 33.2627V33.3333C24.4202 33.3449 24.4409 33.3567 24.4614 33.3683V33.4389C24.4819 33.4505 24.5025 33.4624 24.523 33.474V33.5445C24.5435 33.5564 24.564 33.568 24.5845 33.5798V33.6502C24.605 33.662 24.6256 33.6736 24.6461 33.6855V33.7558C24.6666 33.7676 24.6871 33.7795 24.7076 33.7911V33.8617H24.7384C24.7487 33.9086 24.7589 33.9555 24.7692 34.0026H24.8V34.1082H24.8308V34.1786H24.8616C24.8821 34.2491 24.9026 34.3196 24.9231 34.3901H24.9539V34.4957H24.9847V34.566H25.0155C25.0257 34.6132 25.036 34.6601 25.0462 34.7069H25.077V34.8126H25.1078C25.1181 34.8597 25.1283 34.9067 25.1386 34.9535H25.1694V35.0594H25.2001V35.165H25.2309V35.2706H25.2617V35.3762H25.2925V35.5172H25.3233V35.6228H25.354V35.7287H25.3848V35.8343H25.4156V35.9399H25.4464V36.0456H25.4771C25.4874 36.1983 25.4977 36.351 25.5079 36.5036C25.5999 36.8616 25.601 37.3368 25.6926 37.7013V37.9831H25.7234V38.2649H25.7544V38.6524L25.7851 39.3921H25.8159V40.4841H25.8467V41.0478H25.8775V41.6115C25.9423 41.8754 25.9083 42.3087 25.9083 42.6329V76.2742C25.9088 76.7115 26.0124 77.331 25.9083 77.7537V78.1412H25.8775V78.4934H25.8467V78.8809H25.8159V79.2333H25.7851V79.6207H25.7544V81.1003C25.621 81.617 25.5817 82.2446 25.4464 82.7558C25.4259 82.9438 25.4053 83.1317 25.3848 83.3194H25.354V83.4251H25.3233V83.5309H25.2925V83.6366H25.2617V83.7422H25.2309V83.8478H25.2001V83.9534H25.1694V84.0593H25.1386L25.077 84.3762H25.0462C25.0257 84.4468 25.0052 84.5173 24.9847 84.5877H24.9539V84.658H24.9231V84.7286H24.8923C24.8821 84.7755 24.8718 84.8225 24.8616 84.8695H24.8308V84.9399H24.8V85.0104H24.7692V85.0808H24.7384V85.1514H24.7076V85.2217H24.6769C24.6666 85.2686 24.6563 85.3157 24.6461 85.3626C24.6256 85.3745 24.605 85.3861 24.5845 85.3979V85.4683C24.564 85.4801 24.5435 85.4917 24.523 85.5035V85.5739C24.5025 85.5857 24.4819 85.5976 24.4614 85.6092V85.6797H24.4304C24.4202 85.7148 24.4099 85.75 24.3997 85.7854C24.3791 85.797 24.3586 85.8088 24.3381 85.8204V85.891L24.2458 85.9613V86.0319C24.2252 86.0438 24.2047 86.0554 24.1842 86.0672V86.1376H24.1534C24.1432 86.1728 24.1329 86.208 24.1226 86.2432C24.1021 86.255 24.0816 86.2669 24.0611 86.2785V86.349C24.0098 86.3959 23.9585 86.4429 23.9072 86.49C23.7533 86.6894 23.5994 86.889 23.4455 87.0887H33.4197V87.0534C33.2677 86.948 33.2005 86.7718 33.081 86.6307C32.9886 86.5368 32.8963 86.443 32.8039 86.349L32.7732 86.2432C32.7219 86.1963 32.6706 86.1493 32.6193 86.1023V86.0319H32.5885V85.9613C32.568 85.9497 32.5474 85.9379 32.5269 85.9263C32.5064 85.8557 32.4859 85.7852 32.4654 85.7148C32.4448 85.7032 32.4243 85.6914 32.4038 85.6797C32.3833 85.6092 32.3628 85.5387 32.3422 85.4683C32.3217 85.4566 32.3012 85.4448 32.2807 85.433C32.2602 85.3626 32.2396 85.2922 32.2191 85.2217C32.1986 85.2099 32.1781 85.1982 32.1576 85.1864V85.1161H32.1268V85.0455H32.096V84.9399H32.0652C32.0548 84.893 32.0445 84.8458 32.0342 84.799H32.0035V84.6933H31.9727V84.6227H31.9419C31.9317 84.5759 31.9214 84.5289 31.9111 84.4818H31.8804V84.3762H31.8496C31.8393 84.3293 31.8291 84.2823 31.8188 84.2353H31.788V84.1296H31.7572V84.0593H31.7264C31.6957 83.8949 31.6649 83.7305 31.6341 83.566H31.6033V83.4603H31.5725L31.5418 83.2138H31.511L31.4802 82.9672H31.4494V82.791H31.4186L31.3879 82.4741H31.3571V82.3332H31.3263V82.157H31.2955V82.0161H31.2647V81.8399H31.234C31.2237 81.4643 31.2134 81.0886 31.2032 80.7128H31.1724V80.431H31.1416V80.1491H31.1108V79.8673H31.0801V79.5854H31.0493V79.0218C30.9568 78.6459 31.0185 77.9572 31.0185 77.5072V42.1749C31.0183 41.8611 30.9868 41.4426 31.0493 41.1887V40.0614H31.0801V39.4977H31.1108V38.9342H31.1416V38.5468H31.1724V38.1944H31.2032L31.234 37.5251C31.3263 36.8911 31.4186 36.257 31.511 35.6228H31.5418V35.5172H31.5725V35.4115H31.6033V35.3059H31.6341V35.2003H31.6649V35.0944H31.6957V35.0241H31.7264V34.9184H31.7572V34.8126H31.788V34.7069H31.8188V34.6013H31.8496V34.4957H31.8804V34.4251H31.9111C31.9214 34.3782 31.9317 34.3312 31.9419 34.2842H31.9727V34.2138H32.0035V34.1433H32.0342V34.0729H32.0652V34.0026H32.096V33.932H32.1268V33.8617H32.1576V33.7911H32.1883V33.7207H32.2191V33.6502H32.2499V33.5798L32.3115 33.5093V33.4389C32.3422 33.4155 32.373 33.3918 32.4038 33.3683V33.298C32.4448 33.2627 32.4859 33.2275 32.5269 33.1924V33.1218C32.568 33.0865 32.609 33.0514 32.65 33.0162V32.9456C32.6911 32.9105 32.7321 32.8753 32.7732 32.84V32.7696C32.8142 32.7343 32.8552 32.6991 32.8963 32.664V32.5934C32.9373 32.5581 32.9784 32.5231 33.0194 32.4878V32.4172L33.2656 32.1707C33.3152 32.1124 33.3263 32.0405 33.389 31.9947V31.9594H23.4454H23.4455ZM68.5449 31.9594H58.6939V31.9947C58.7657 32.065 58.8375 32.1354 58.9093 32.2059V32.2763C58.9914 32.3585 59.0735 32.4407 59.1556 32.5231V32.5934C59.2274 32.664 59.2992 32.7344 59.371 32.8047L59.4018 32.9105L59.4942 32.9809V33.0514C59.5147 33.0631 59.5352 33.0749 59.5557 33.0865L59.5865 33.1924H59.6173V33.2627C59.6378 33.2746 59.6583 33.2862 59.6788 33.298C59.6891 33.3449 59.6994 33.3919 59.7096 33.4389H59.7404C59.7507 33.474 59.7609 33.5092 59.7712 33.5445C59.7917 33.5564 59.8122 33.568 59.8327 33.5798C59.843 33.6267 59.8533 33.6737 59.8635 33.7207C59.884 33.7324 59.9046 33.7442 59.9253 33.7558V33.8264C59.9458 33.838 59.9663 33.8498 59.9868 33.8617V33.932C60.0074 33.9439 60.0279 33.9555 60.0484 33.9673C60.0997 34.1433 60.151 34.3194 60.2023 34.4957H60.2331V34.566H60.2639C60.4178 35.0944 60.5717 35.6228 60.7256 36.1512C60.7358 36.3039 60.7461 36.4566 60.7563 36.6092C60.8054 36.7999 60.8314 37.0874 60.8795 37.2785V37.666H60.9102V38.0184H60.941V38.4059H60.9718V38.6877H61.0026V38.9693C61.0888 39.3139 61.0949 39.7237 61.0949 40.167V41.224H61.1257V41.7874C61.2053 42.1113 61.1565 42.6338 61.1567 43.0204V77.1548C61.1567 77.4065 61.1736 77.7354 61.1257 77.9297V78.4934H61.0949V79.0571H61.0641V79.4445H61.0334V79.7969H61.0026V80.1844H60.9718C60.9615 80.56 60.9513 80.9357 60.941 81.3115C60.8749 81.5715 60.8551 81.9315 60.7871 82.1923V82.4036C60.7159 82.6631 60.648 82.9914 60.5717 83.2491C60.5614 83.3429 60.5511 83.4368 60.5409 83.5309H60.5101V83.6366H60.4793V83.7422H60.4485V83.8478H60.4178V83.9534H60.387V84.0593H60.3562V84.2002H60.3254V84.3058H60.2946V84.4115H60.2639V84.5171H60.2331V84.6227H60.2023V84.6933C60.1818 84.7052 60.1613 84.7168 60.1407 84.7286C60.1202 84.799 60.0997 84.8694 60.0792 84.9399C60.0587 84.9517 60.0381 84.9633 60.0176 84.9752C60.0074 85.022 59.9971 85.069 59.9868 85.1161C59.9663 85.1277 59.9458 85.1395 59.9253 85.1514V85.2217H59.8943V85.292C59.8738 85.3039 59.8533 85.3157 59.8327 85.3273C59.8122 85.3979 59.7917 85.4684 59.7712 85.5388H59.7404C59.7301 85.5739 59.7199 85.6091 59.7096 85.6445C59.6891 85.6561 59.6686 85.6679 59.6481 85.6797V85.7501C59.607 85.7854 59.566 85.8206 59.5249 85.8557V85.9263C59.4839 85.9613 59.4429 85.9966 59.4018 86.0319V86.1023L59.2787 86.2081V86.2785C59.2377 86.3138 59.1966 86.349 59.1556 86.3841V86.4547C59.1145 86.49 59.0735 86.525 59.0325 86.5603V86.6307C58.9812 86.6778 58.9299 86.7247 58.8786 86.7716V86.8421C58.858 86.8538 58.8375 86.8656 58.817 86.8774C58.776 86.9478 58.7349 87.0182 58.6939 87.0887H68.6987V87.0534L68.4217 86.8069V86.7365C68.3704 86.6894 68.3191 86.6424 68.2678 86.5956V86.525C68.2268 86.49 68.1857 86.4547 68.1447 86.4194V86.349C68.0934 86.3019 68.0421 86.2549 67.9908 86.2081V86.1376C67.9395 86.0907 67.8882 86.0437 67.8369 85.9966V85.9263C67.8061 85.9028 67.7753 85.8792 67.7446 85.8557C67.7343 85.8088 67.724 85.7618 67.7138 85.7148H67.683V85.6445C67.6625 85.6326 67.642 85.621 67.6214 85.6092C67.6009 85.5388 67.5804 85.4684 67.5599 85.3979H67.5291V85.3273H67.4983V85.257H67.4673V85.1864L67.4058 85.1161V85.0455C67.3853 85.0339 67.3647 85.022 67.3442 85.0104C67.334 84.9633 67.3237 84.9163 67.3134 84.8695H67.2827C67.2724 84.8224 67.2621 84.7754 67.2519 84.7286H67.2211V84.6227H67.1903C67.1801 84.5759 67.1698 84.5289 67.1595 84.4818H67.1288V84.3762H67.098V84.3058H67.0672C67.0569 84.2589 67.0467 84.2118 67.0364 84.1649H67.0056V84.0593H66.9749C66.9646 84.0122 66.9543 83.9652 66.9441 83.9184H66.9133V83.8128H66.8825V83.7422H66.8517C66.821 83.5309 66.7902 83.3196 66.7594 83.1082C66.627 82.6363 66.577 82.0458 66.4516 81.5581V81.2762H66.4208V81.0297H66.39C66.3798 80.6072 66.3695 80.1845 66.3593 79.7617V79.3742H66.3285V79.0218H66.2977V78.6343H66.2669C66.2567 78.4583 66.2463 78.2822 66.2359 78.1059V77.7185C66.1672 77.4375 66.1674 76.2383 66.2359 75.9571V43.4079C66.2008 42.9418 66.2054 42.3455 66.2052 41.8227C66.2052 41.5608 66.1858 41.2171 66.2359 41.0125V39.8854H66.2669V39.4977H66.2977V39.1455H66.3285V38.758H66.3593V38.1944H66.39V37.6307C66.4465 37.4123 66.4867 37.1072 66.5439 36.8911C66.5542 36.762 66.5645 36.6328 66.5747 36.5036H66.6055V36.3627H66.6363V36.2218H66.6671V36.0808H66.6978V35.9399H66.7286C66.7594 35.7637 66.7902 35.5876 66.821 35.4115H66.8517V35.3059H66.8825V35.2003H66.9133V35.0944H66.9441V34.9888H66.9749V34.8832H67.0056V34.7775H67.0364V34.6719H67.0672V34.566H67.098C67.1082 34.4957 67.1185 34.4251 67.1288 34.3548H67.1595C67.1698 34.3079 67.1801 34.2607 67.1903 34.2138H67.2211V34.1433C67.2416 34.1317 67.2621 34.1198 67.2827 34.1082V34.0376L67.3442 33.9673V33.8967H67.375V33.8264H67.4058V33.7558H67.4366C67.4468 33.7089 67.4571 33.6619 67.4673 33.6149C67.4879 33.6033 67.5086 33.5914 67.5291 33.5798V33.5093H67.5599V33.4389L67.6214 33.3683V33.298C67.642 33.2862 67.6625 33.2746 67.683 33.2627V33.1924C67.7138 33.1687 67.7446 33.1452 67.7753 33.1218V33.0514L67.8985 32.9456V32.8752C67.9292 32.8518 67.96 32.8283 67.9908 32.8047V32.7343L68.0831 32.664V32.5934C68.1242 32.5581 68.1652 32.5231 68.2063 32.4878V32.4172L68.2986 32.3469C68.3088 32.3116 68.3191 32.2764 68.3294 32.2412H68.3909C68.4892 32.1707 68.5167 32.111 68.5448 31.9594H68.5449Z" fill="white"/>
</svg>
