<svg id="LH" xmlns="http://www.w3.org/2000/svg" width="4000" height="4000" viewBox="0 0 4000 4000">
  <metadata><?xpacket begin="﻿" id="W5M0MpCehiHzreSzNTczkc9d"?>
<x:xmpmeta xmlns:x="adobe:ns:meta/" x:xmptk="Adobe XMP Core 5.6-c140 79.160451, 2017/05/06-01:08:21        ">
   <rdf:RDF xmlns:rdf="http://www.w3.org/1999/02/22-rdf-syntax-ns#">
      <rdf:Description rdf:about=""/>
   </rdf:RDF>
</x:xmpmeta>
                                                                                                    
                                                                                                    
                                                                                                    
                                                                                                    
                                                                                                    
                                                                                                    
                                                                                                    
                                                                                                    
                                                                                                    
                                                                                                    
                                                                                                    
                                                                                                    
                                                                                                    
                                                                                                    
                                                                                                    
                                                                                                    
                                                                                                    
                                                                                                    
                                                                                                    
                                                                                                    
                           
<?xpacket end="w"?></metadata>
<defs>
    <style>
      .cls-1 {
        fill-rule: evenodd;
      }
    </style>
  </defs>
  <path id="Заливка_цветом_1" data-name="Заливка цветом 1" class="cls-1" d="M2144.54,1333.27v6.31h1.62v9.47h-1.62v31.54h-1.62v3.16c-1.62.52-3.24,1.05-4.86,1.57v1.58h-3.24v1.58q-12.96.78-25.92,1.58c-19.5,5.54-45.29,3.96-64.81,9.46q-11.34.8-22.68,1.58c-11.94,3.66-27.05,7.12-38.89,11.04q-6.48.795-12.96,1.58v1.57h-3.24v1.58c-3.24.53-6.48,1.05-9.72,1.58v1.58c-2.7.52-5.41,1.05-8.11,1.57v1.58h-3.24v1.58h-4.86v1.58h-3.24v1.57h-4.86v1.58h-4.86v1.58l-9.72,3.15v1.58h-3.24l-1.62,3.15q-3.24.795-6.48,1.58c-0.54,1.05-1.08,2.11-1.62,3.16-2.16.52-4.32,1.05-6.48,1.57-0.54,1.06-1.08,2.11-1.62,3.16-2.16.53-4.32,1.05-6.48,1.58l-1.62,3.15c-2.16.53-4.33,1.05-6.49,1.58l-1.62,3.15h-3.24v1.58h-3.24q-1.62,2.37-3.24,4.73h-1.62c-0.54,1.05-1.08,2.11-1.62,3.16h-3.24q-5.67,6.3-11.34,12.62h-3.24q-5.67,6.3-11.34,12.62h-3.24q-3.24,3.93-6.48,7.88c-1.08.53-2.16,1.05-3.24,1.58v3.15q-2.43,1.59-4.86,3.16v3.15q-2.445,1.59-4.87,3.16v3.15c-1.62,1.05-3.24,2.11-4.86,3.16v3.15c-1.62,1.05-3.24,2.11-4.86,3.16v3.15c-1.62,1.05-3.24,2.11-4.86,3.16v3.15q-2.43,1.575-4.86,3.16v3.15c-1.08.53-2.16,1.05-3.24,1.58v3.15l-3.24,3.16v3.15h-1.62v3.16h-1.62v3.15h-1.62v3.16h-1.62v3.15h-1.62v3.16h-1.62v3.15h-1.62v3.16h-1.62v3.15h-1.62v3.16h-1.62l-1.62,6.3h-1.62v3.16h-1.62v4.73h-1.62v3.16h-1.62v4.73h-1.62c-0.54,3.15-1.08,6.31-1.62,9.46h-1.62v3.16h-1.62v4.73h-1.62c-0.54,3.15-1.08,6.31-1.62,9.46h-1.63v3.16h-1.62v4.73h-1.62q-0.81,8.67-1.62,17.35c-7.65,24.62-8.75,55.26-16.2,80.45v17.35l-1.62,33.12h-1.62v50.48h-1.62v17.35c-4.84,16.71-3.24,40.5-3.24,61.52v640.41c8.49,4.83,6.36,7.89,21.06,7.89,6.33-5.02,27.59-.42,37.27-3.16v-1.58h16.2v-1.57h11.34v-1.58h6.48v-1.58h6.49v-1.58h6.48v-1.57h6.48V2551h6.48v-1.58q6.48-.78,12.96-1.57v-1.58H1861v-1.58h4.86v-1.58h4.86v-1.57h4.86v-1.58h4.86v-1.58h6.48v-1.58h4.87v-1.57h4.86v-1.58h4.86v-1.58q4.86-.78,9.72-1.58v-1.57q3.24-.8,6.48-1.58v-1.58h4.86v-1.58h3.24v-1.57c2.16-.53,4.32-1.05,6.48-1.58v-1.58h4.86v-1.57q3.24-.8,6.48-1.58v-1.58h4.86v-1.58q4.86-1.575,9.73-3.15v-1.58h3.24v-1.58c2.16-.52,4.32-1.05,6.48-1.57,0.54-1.06,1.08-2.11,1.62-3.16h3.24v-1.58h3.24l1.62-3.15q4.86-1.575,9.72-3.16l1.62-3.15c2.16-.53,4.32-1.05,6.48-1.58l1.62-3.15q4.86-1.575,9.72-3.16l1.62-3.15h3.24c0.54-1.05,1.08-2.1,1.62-3.16h3.24c0.54-1.05,1.08-2.1,1.63-3.15h3.24c0.53-1.05,1.08-2.1,1.62-3.16,1.62-.52,3.24-1.05,4.86-1.57v-1.58c2.16-.53,4.32-1.05,6.48-1.58l1.62-3.15h3.24c0.54-1.05,1.08-2.11,1.62-3.16h3.24v-1.57q2.43-.8,4.86-1.58c0.54-1.05,1.08-2.11,1.62-3.16h3.24q1.62-2.355,3.24-4.73h3.24l6.48-7.89h3.24q3.24-3.93,6.48-7.88h3.24q3.24-3.945,6.49-7.89h3.24l6.48-7.89h3.24q1.62-2.355,3.24-4.73,5.67-4.725,11.34-9.46v-3.16q11.34-10.245,22.68-20.5v-3.16q7.29-6.3,14.58-12.62v-3.15c2.16-1.58,4.33-3.16,6.49-4.73v-3.16c2.16-1.58,4.32-3.15,6.48-4.73v-3.16q3.24-2.355,6.48-4.73v-3.15q3.24-2.37,6.48-4.73v-3.16c2.16-1.58,4.32-3.15,6.48-4.73v-3.16l4.86-3.15v-3.16c1.08-.52,2.16-1.05,3.24-1.57q0.81-3.165,1.62-6.31c1.08-.53,2.16-1.05,3.24-1.58,0.54-2.1,1.08-4.21,1.62-6.31h1.62c0.54-1.58,1.08-3.15,1.62-4.73,1.08-.53,2.16-1.05,3.24-1.58v-3.15h1.62V2286c1.08-.52,2.16-1.05,3.24-1.58l1.62-6.3c1.08-.53,2.16-1.06,3.24-1.58q0.81-3.165,1.62-6.31c1.08-.53,2.16-1.05,3.24-1.58,0.54-2.1,1.08-4.21,1.63-6.31,1.08-.52,2.16-1.05,3.24-1.58v-3.15c1.08-.53,2.16-1.05,3.24-1.58q0.81-3.15,1.62-6.31c1.08-.52,2.16-1.05,3.24-1.57q0.81-3.165,1.62-6.31h1.62l1.62-4.74c1.08-.52,2.16-1.05,3.24-1.57q0.81-3.165,1.62-6.31c1.08-.53,2.16-1.05,3.24-1.58v-3.16h1.62v-3.15h1.62v-4.73h1.62q0.81-3.165,1.62-6.31h1.62v-4.73h1.62v-3.16h1.62c0.54-2.1,1.08-4.21,1.62-6.31h1.62v-4.73h1.62c0.54-2.1,1.08-4.21,1.62-6.31h1.62v-4.73h1.62c0.54-2.1,1.08-4.21,1.62-6.31h1.62v-4.73h1.62v-3.16h1.62v-4.73h1.62c0.54-2.1,1.08-4.21,1.62-6.31h1.62v-4.73h1.62c0.54-2.1,1.08-4.21,1.62-6.31h1.62v-4.73h1.62v-3.16h1.62v-4.73h1.62v-3.15h1.63q1.62-7.11,3.24-14.2h1.62v-4.73h1.62v-4.74h1.62v-4.73h1.62v-4.73h1.62v-4.73h1.62v-4.73h1.62v-4.74h1.62q0.81-6.3,1.62-12.61h1.62v-4.74h1.62v-6.31h1.62v-6.31h1.62l1.62-11.04h1.62l1.62-11.04h1.62v-6.31h1.62v-4.73h1.62l1.62-11.04h1.62l1.62-11.04h1.62l3.24-15.78h1.62q1.62-7.875,3.24-15.77h1.62v-6.31h1.62v-4.73h1.62v-4.73h1.62v-6.31h1.62v-4.74h1.62q3.24-25.23,6.49-50.47h1.62v-6.31h1.62v-6.31h1.62q0.81-7.1,1.62-14.2h1.62c1.36-2.27,1.11-2.7,1.62-6.31a284.121,284.121,0,0,1,56.7,4.74,34.851,34.851,0,0,0,6.49,7.88v61.52h-1.62q-0.81,15.765-1.62,31.55c-0.51,21.01,3.48,51.7-1.62,69.4v41.01q-0.81,17.355-1.63,34.7h-1.62v25.24h-1.62v25.24h-1.62q-0.81,80.445-1.62,160.89l-1.62,41.01h-1.62v25.24h-1.62v50.48h-1.62v25.24c-2.64,9.15-1.62,24.54-1.62,36.27v66.25c1.08,0.53,2.16,1.06,3.24,1.58,5.88,5.6,34.91,3.16,46.99,3.16h662.68c2.32-4.35,7.56-11.25,11.34-14.2V1938.98c0-18.69,2.97-44.13-1.62-59.94v-17.35q-0.81-16.56-1.62-33.13h-1.62q-2.43-50.46-4.86-100.95c-7.07-22.69-10.67-49.5-17.82-72.56l-3.24-25.23h-1.62v-4.74h-1.62v-3.15h-1.62c-0.54-3.15-1.08-6.31-1.62-9.46h-1.62v-3.16h-1.62v-4.73h-1.63v-3.16h-1.61v-4.73h-1.63v-4.73h-1.62v-3.16h-1.62q-0.81-3.93-1.62-7.88c-1.08-.53-2.16-1.05-3.24-1.58-0.54-2.1-1.08-4.21-1.62-6.31-1.08-.52-2.16-1.05-3.24-1.58q-0.81-3.15-1.62-6.31c-1.08-.52-2.16-1.05-3.24-1.57q-0.81-3.165-1.62-6.31c-1.08-.53-2.16-1.05-3.24-1.58-0.54-2.1-1.08-4.21-1.62-6.31-1.08-.53-2.16-1.05-3.24-1.58q-0.81-3.15-1.62-6.31c-1.08-.52-2.16-1.05-3.24-1.57v-3.16c-2.16-1.58-4.32-3.15-6.48-4.73v-3.16q-4.86-3.93-9.72-7.88v-3.16q-4.86-3.945-9.72-7.88v-3.16q-4.86-3.945-9.73-7.89v-3.15c-2.16-1.58-4.32-3.15-6.48-4.73-0.54-1.05-1.08-2.11-1.62-3.16h-3.24q-3.24-3.945-6.48-7.88h-3.24l-6.48-7.89h-3.24c-1.62-2.1-3.24-4.21-4.86-6.31h-3.24l-6.48-7.89c-1.62-.52-3.24-1.05-4.86-1.57-0.54-1.06-1.08-2.11-1.62-3.16l-9.72-3.15c-0.55-1.05-1.09-2.11-1.62-3.16q-4.875-1.575-9.73-3.15c-0.54-1.05-1.08-2.11-1.62-3.16l-9.72-3.15c-0.54-1.05-1.08-2.11-1.62-3.16q-15.39-6.3-30.78-12.62h-4.86v-1.57h-3.24v-1.58c-3.24-.53-6.49-1.05-9.73-1.58v-1.58h-3.24v-1.57h-4.86v-1.58q-10.53-1.575-21.06-3.16c-11.89-3.62-26.68-5.92-38.89-9.46q-9.72-.8-19.44-1.58v-1.57h-11.34v-1.58h-9.72v-1.58h-14.58v-1.58h-16.21v-1.57h-17.82v-1.58c-5.08-1.41-15.42,2.27-17.82-1.58v-53.63c9.05-3.21,25.49-1.58,37.26-1.58H3993.24c1.85,1.8.01,0.63,3.24,1.58q0.81,2.37,1.62,4.73c2.48,2.62,1.61,9.22,1.62,14.2,0.02,12.64.6,26.47-3.24,34.7q-8.91.8-17.82,1.58v1.58h-19.44v1.57h-16.21v1.58h-9.72v1.58h-9.72v1.58h-11.34v1.57h-9.72v1.58h-9.72v1.58h-8.11v1.58h-9.72v1.57h-8.1v1.58h-9.72q-29.97,8.67-59.95,17.35v1.58l-9.72,3.15v1.58h-3.24v1.58q-3.24.78-6.48,1.58l-1.62,3.15h-3.24v1.58h-3.24l-3.24,3.15h-3.24c-0.54,1.05-1.08,2.11-1.62,3.16h-3.24v1.57h-3.24v1.58h-3.25l-3.24,3.16h-3.24q-1.62,2.355-3.24,4.73h-3.24c-1.62,2.1-3.24,4.21-4.86,6.31h-3.24q-2.43,3.15-4.86,6.31h-3.24q-1.62,2.355-3.24,4.73h-3.24c-1.62,2.1-3.24,4.21-4.86,6.31h-3.24c-1.62,2.1-3.24,4.21-4.86,6.31h-3.24c-1.62,2.1-3.24,4.21-4.86,6.31-1.08.52-2.16,1.05-3.24,1.58v3.15q-4.05,3.15-8.11,6.31v3.15q-4.05,3.165-8.1,6.31v3.16q-4.05,3.15-8.1,6.31v3.15h-1.62q-1.62,2.37-3.24,4.73c-1.08.53-2.16,1.06-3.24,1.58v3.16l-4.86,3.15v3.16c-1.08.52-2.16,1.05-3.24,1.57l-1.62,4.74h-1.62q-0.81,3.15-1.62,6.31h-1.62q-0.81,2.355-1.62,4.73c-1.08.52-2.16,1.05-3.24,1.57q-0.81,3.165-1.62,6.31c-1.08.53-2.16,1.06-3.24,1.58-0.54,2.1-1.08,4.21-1.62,6.31-1.08.53-2.16,1.05-3.24,1.58-0.54,1.58-1.08,3.15-1.62,4.73h-1.62l-1.62,7.89h-1.62v3.15h-1.62c-0.54,3.16-1.08,6.31-1.63,9.47h-1.62v4.73h-1.62v3.15h-1.62q-1.62,7.11-3.24,14.2h-1.62v3.15h-1.62v4.74h-1.62l-1.62,14.19h-1.62v6.31h-1.62v6.31h-1.62v6.31h-1.62v7.89c-5.31,16.21-6.39,38.39-11.34,55.21v17.35h-1.62v15.77h-1.62v17.35h-1.62v50.48h-1.62v25.24c-3.54,12.27-1.62,32.33-1.62,47.32V3451.68c0,12.19-1.17,28.26,1.62,37.85v25.24h1.62v25.24h1.62v17.35h1.62v15.78h1.62l4.86,55.2h1.62q0.81,10.26,1.62,20.51h1.62q0.81,7.095,1.62,14.2h1.62l1.62,14.19h1.62v6.31H3606v7.89h1.62v4.73h1.62v4.73h1.62v4.73h1.62c0.54,3.16,1.08,6.31,1.62,9.47h1.62v3.15h1.62q4.05,13.41,8.11,26.82c1.08,0.52,2.16,1.05,3.24,1.58v3.15c1.08,0.53,2.16,1.05,3.24,1.58v3.15c1.08,0.53,2.16,1.05,3.24,1.58,0.54,2.1,1.08,4.21,1.62,6.31h1.62c0.54,1.58,1.08,3.15,1.62,4.73,1.08,0.53,2.16,1.05,3.24,1.58,0.54,2.1,1.08,4.21,1.62,6.31,1.08,0.52,2.16,1.05,3.24,1.58v3.15c1.08,0.53,2.16,1.05,3.24,1.58v3.15c1.08,0.53,2.16,1.05,3.24,1.58v3.15c1.08,0.53,2.16,1.06,3.24,1.58v3.16c1.08,0.52,2.16,1.05,3.24,1.57v3.16h1.62c0.54,1.58,1.08,3.15,1.62,4.73,1.08,0.53,2.16,1.05,3.24,1.58v3.15c1.62,1.05,3.24,2.11,4.86,3.16v3.15c1.08,0.53,2.16,1.05,3.24,1.58v3.15c1.08,0.53,2.16,1.06,3.24,1.58v3.16h1.62q0.81,2.355,1.62,4.73c1.08,0.52,2.16,1.05,3.24,1.58v3.15q2.445,1.575,4.87,3.16v1.57h3.24q1.62,2.37,3.24,4.73h3.24l3.24,4.74h3.24q1.62,2.355,3.24,4.73h3.24c1.08,1.58,2.16,3.15,3.24,4.73h3.24q1.62,2.37,3.24,4.73h3.24l3.24,4.74h3.24q1.62,2.355,3.24,4.73,3.24,0.78,6.48,1.58l1.62,3.15c1.62,0.53,3.24,1.05,4.86,1.58v1.57c2.16,0.53,4.33,1.06,6.49,1.58,0.54,1.05,1.08,2.11,1.62,3.16,2.16,0.52,4.32,1.05,6.48,1.57,0.54,1.06,1.08,2.11,1.62,3.16h3.24v1.58h3.24l1.62,3.15h3.24c0.54,1.05,1.08,2.1,1.62,3.16h3.24v1.57c2.16,0.53,4.32,1.05,6.48,1.58v1.58h4.86v1.58h4.86v1.57h4.86v1.58h4.86v1.58h6.48v1.57h4.86v1.58h4.87v1.58h4.86v1.58h4.86v1.57q9.72,1.59,19.44,3.16c12.38,4.09,27.69,7.27,40.51,11.04h9.72c9.02,2.61,21.9,3.82,30.78,6.31h17.82v1.58h22.69v1.57h12.96v1.58q4.86,1.575,9.72,3.16c4.8,10.58,3.32,30.36,3.24,45.74-1.8.94-2.54,2.75-3.24,3.16h-3.24v1.57q-12.15.8-24.3,1.58c-23.35,6.4-59.02,3.15-87.5,3.15H2708.39c-2.85-15.5-1.64-37.14-1.62-55.2h1.62v-1.58c4.18-.16,5.62-0.24,8.1-1.58v-1.58h12.96v-1.57h24.31v-1.58h17.82c11.59-3.32,27.32-4.5,38.88-7.89h9.73v-1.57q7.29-.795,14.58-1.58v-1.58h6.48v-1.58h6.48v-1.57q10.53-1.59,21.06-3.16v-1.58h3.24v-1.57q4.86-.795,9.72-1.58v-1.58c2.7-.52,5.41-1.05,8.11-1.58v-1.57h3.24v-1.58h4.86v-1.58h3.24v-1.57h4.86v-1.58h4.86v-1.58l9.72-3.15v-1.58c2.16-.53,4.32-1.05,6.48-1.58l1.62-3.15q4.86-1.59,9.72-3.16l1.62-3.15h3.24v-1.58h3.24l3.24-3.16h3.25q0.795-1.575,1.62-3.15h3.24l3.24-3.15h3.24l3.24-4.74h3.24q3.24-3.945,6.48-7.88h3.24q2.43-3.165,4.86-6.31h3.24q2.43-3.165,4.86-6.31h3.24l6.48-7.89h3.24l1.62-3.15,9.72-7.89q0.81-2.37,1.62-4.73,5.685-4.74,11.35-9.47v-3.15l12.96-11.04v-3.16c2.16-1.58,4.32-3.15,6.48-4.73v-3.16c1.08-.52,2.16-1.05,3.24-1.57l1.62-4.74h1.62l1.62-6.3c1.08-.53,2.16-1.06,3.24-1.58,0.54-2.1,1.08-4.21,1.62-6.31,1.08-.53,2.16-1.05,3.24-1.58V3764c1.08-.53,2.16-1.05,3.24-1.58,0.54-2.1,1.08-4.21,1.62-6.31,1.08-.53,2.16-1.05,3.24-1.58v-3.15c1.08-.53,2.16-1.05,3.24-1.58v-3.15h1.62v-4.74h1.62v-3.15h1.62q1.62-7.1,3.25-14.2h1.61v-3.15h1.63q1.62-7.1,3.24-14.2h1.62v-3.15h1.62v-4.74h1.62q0.81-6.3,1.62-12.61c3.9-11.21,7.61-24.94,11.34-36.28v-7.89c3.91-12.22,6.02-28.72,9.72-41.01l3.24-75.72h1.62q0.81-15.765,1.62-31.54v-17.35h1.62v-25.24c3.29-11.38,1.62-30.11,1.62-44.17V2798.65c-3.87-13.42,1.07-33.17-1.62-48.9-3.56-20.87-1.59-49.02-1.62-72.56-2.8-1.59-6.9-7.33-8.1-7.89H1731.38v1.58c-1.84,1.8-.64.01-1.62,3.15q-2.43.795-4.86,1.58v717.7c0,12.19-1.16,28.27,1.62,37.86v25.24h1.62v39.43q0.81,18.15,1.62,36.28h1.62v17.35l1.62,23.67h1.62l1.62,33.12c3.48,11.64,4.52,27.76,8.1,39.43v9.47h1.62v6.31h1.62l1.62,11.04h1.62v6.31h1.62v6.31h1.62v4.73h1.63l4.86,22.08h1.62v3.16h1.62c0.54,3.15,1.08,6.31,1.62,9.46h1.62q1.62,7.095,3.24,14.2h1.62v3.15h1.62v4.74h1.62v4.73h1.62v3.15c1.08,0.53,2.16,1.05,3.24,1.58q1.62,4.725,3.24,9.46c1.08,0.53,2.16,1.06,3.24,1.58q1.62,4.74,3.24,9.47c1.08,0.52,2.16,1.05,3.24,1.57q0.81,3.165,1.62,6.31c1.08,0.53,2.16,1.05,3.24,1.58q1.62,4.725,3.24,9.46c1.08,0.53,2.16,1.06,3.24,1.58v3.16l22.69,20.5v3.16q4.86,3.945,9.72,7.88,8.1,8.685,16.2,17.35h3.24c0.54,1.06,1.08,2.11,1.62,3.16,1.62,0.53,3.24,1.05,4.86,1.58q2.43,3.15,4.86,6.31h3.24q1.62,2.355,3.24,4.73h3.24q2.43,3.15,4.86,6.31h3.24c1.08,1.58,2.17,3.15,3.25,4.73h3.24c1.08,1.58,2.16,3.15,3.24,4.73h3.24l3.24,3.16h3.24v1.57h3.24v1.58h3.24v1.58h3.24v1.58c2.16,0.52,4.32,1.05,6.48,1.57v1.58h3.24v1.58h3.24v1.58h3.24v1.57h3.24v1.58h3.24v1.58q3.24,0.78,6.48,1.58v1.57h3.24v1.58q5.67,0.795,11.35,1.58v1.57h4.86v1.58h4.86v1.58h4.86v1.58h4.86v1.57q8.1,1.59,16.2,3.16v1.58l21.06,3.15v1.58h6.49v1.58h6.48v1.57q7.29,0.8,14.58,1.58v1.58h9.72c11.97,3.5,28.55,4.52,40.51,7.88h38.88v1.58h3.24v1.58h4.86v1.58c3.84,2.92,4.48,2.74,4.86,9.46,4.75,5.08.47,32.75,0,39.44-3.24.52-6.48,1.05-9.72,1.57v1.58l-124.76,3.15c-19.71,0-46.45,2.98-63.19-1.57q-115.83.78-231.69,1.57-417.975-.78-836.046-1.57v-1.58q-12.151-.795-24.3-1.58l-1.62-18.93h-1.62v-29.97c3.883-1.6,7.05-2.87,11.341-4.73v-1.58h25.924v-1.57h25.924q29.971-4.74,59.949-9.47v-1.57q6.48-.795,12.962-1.58c7.341-2.43,17.08-5.5,24.3-7.89l17.83-3.15v-1.58h3.24v-1.58q7.29-2.37,14.58-4.73v-1.58h3.24v-1.57q3.24-.795,6.48-1.58v-1.58h4.86v-1.58l9.72-3.15v-1.58h3.24v-1.58c2.16-.52,4.32-1.05,6.48-1.57,0.54-1.06,1.08-2.11,1.62-3.16q3.24-.78,6.49-1.58l1.62-3.15h3.24c0.54-1.05,1.08-2.1,1.62-3.16h3.24v-1.57h3.24c0.54-1.05,1.08-2.11,1.62-3.16h3.24l1.62-3.15h3.24c0.54-1.05,1.08-2.11,1.62-3.16,2.16-.52,4.32-1.05,6.48-1.57,0.54-1.06,1.08-2.11,1.62-3.16h3.24q4.05-4.725,8.1-9.46h1.62c0.54-1.05,1.08-2.11,1.62-3.16h3.24l16.21-17.35c2.16-1.58,4.32-3.15,6.48-4.73v-1.58h3.24l9.72-11.04,4.86-3.15v-3.16c1.08-.53,2.16-1.05,3.24-1.58q0.81-2.355,1.62-4.73h1.62v-3.15q2.43-1.59,4.86-3.16v-3.15h1.62l1.62-4.74c1.08-.52,2.16-1.05,3.24-1.57v-3.16l4.86-3.15v-3.16c1.08-.52,2.16-1.05,3.24-1.57v-3.16c1.08-.52,2.16-1.05,3.24-1.58q0.81-2.355,1.62-4.73h1.62l4.86-14.19h1.62v-3.16h1.63v-3.15h1.62v-3.16h1.62q1.62-4.725,3.24-9.46h1.62v-4.74h1.62v-3.15h1.62v-3.15h1.62v-3.16h1.62q1.62-7.89,3.24-15.77h1.62v-4.74h1.62v-4.73h1.62v-4.73h1.62v-4.73h1.62l3.24-15.78h1.62q0.81-8.67,1.62-17.35c3-9.67,5.17-23.33,8.1-33.12v-17.35h1.62v-15.78h1.62V3568.4h1.62v-50.47h1.62q0.81-16.56,1.62-33.13v-17.35c3.93-13.61,1.62-35.67,1.62-52.05V2677.19c-4.46-2.26-11.55-7.36-14.58-11.04H2.582c-4.563-12.05-1.7-39.71-1.621-55.21,5.4-1.97,14.866-1.65,22.684-1.58,5.421-4.35,27.2-.77,35.645-3.15v-1.58H72.253v-1.58H85.215c12.083-3.45,27.255-5.83,38.885-9.46q10.53-1.575,21.064-3.16v-1.57q8.1-1.575,16.2-3.16v-1.58h4.861v-1.57h4.861v-1.58h4.86v-1.58h4.861v-1.57q8.1-1.59,16.2-3.16v-1.58h3.241v-1.57q3.24-.8,6.481-1.58v-1.58q3.24-.78,6.481-1.58v-1.57h3.24v-1.58H219.7v-1.58h3.24v-1.58h3.241v-1.57h3.24v-1.58h3.241v-1.58h3.24v-1.58h3.241l3.24-3.15h3.241l1.62-3.15h3.24l3.241-4.74h3.24q1.622-2.355,3.241-4.73h3.241c1.619-2.1,3.24-4.21,4.86-6.31h3.24c1.081-1.58,2.161-3.15,3.241-4.73h3.24q1.621-2.37,3.241-4.73h3.24q1.621-2.37,3.241-4.73h3.241c0.54-1.06,1.08-2.11,1.62-3.16l9.721-7.89v-3.15q3.24-2.37,6.481-4.73,2.43-3.165,4.861-6.31h1.62v-3.16l12.962-11.04v-3.15q4.05-3.165,8.1-6.31v-3.16c1.08-.52,2.161-1.05,3.241-1.58q0.81-2.355,1.62-4.73h1.62v-3.15c1.081-.53,2.161-1.05,3.241-1.58v-3.15c1.08-.53,2.16-1.06,3.24-1.58v-3.16c1.08-.52,2.161-1.05,3.241-1.57v-3.16c1.08-.52,2.16-1.05,3.24-1.58v-3.15c1.08-.53,2.161-1.05,3.241-1.58v-3.15c1.08-.53,2.161-1.05,3.24-1.58v-3.16c1.08-.52,2.16-1.05,3.241-1.57v-3.16h1.62v-3.15h1.62v-4.73h1.62v-3.16H372v-4.73h1.62c0.54-2.1,1.08-4.21,1.62-6.31h1.62v-4.73h1.621c0.539-2.1,1.08-4.21,1.62-6.31h1.62v-4.73h1.62v-3.16h1.621v-4.73h1.62v-3.16h1.62l1.62-14.19h1.621v-6.31h1.62v-6.31h1.62v-6.31h1.62q0.811-7.1,1.62-14.2h1.621l3.24-29.97c6.353-21.15,6.693-48.06,12.962-69.4v-75.71h1.62q0.81-26.82,1.621-53.63v-22.09c4.836-16.79,1.619-52,1.62-72.56V629.765c0-26.932,3.194-59.885-3.241-82.023V531.968h-1.62V506.73c0-13.581,1.553-31.667-1.62-42.589V438.9H412.5V413.665h-1.621V401.046h-1.62V388.427h-1.62V375.808h-1.62V363.189c-2.954-9.694-5-23.393-8.1-33.125q-0.808-7.886-1.62-15.773h-1.62q-0.81-3.944-1.62-7.887h-1.62v-3.155H389.82v-4.732H388.2v-3.155h-1.62l-1.62-7.887h-1.621v-4.731h-1.62v-3.155H380.1q-0.81-4.732-1.62-9.465h-1.621q-1.618-4.731-3.24-9.464H372v-3.155h-1.621v-3.154h-1.62q-1.62-4.733-3.24-9.465l-3.241-1.577L360.656,237h-1.62v-3.155h-1.62V230.69H355.8v-3.155l-3.24-3.154v-3.155l-3.241-1.577v-3.155l-4.86-3.155v-3.154l-3.241-1.578v-3.155l-4.861-3.155v-3.154l-4.86-3.155q-0.811-2.365-1.621-4.732l-3.24-1.578v-3.154l-3.241-1.578v-3.154l-4.86-3.155v-3.155l-3.241-1.577-6.481-7.887h-3.24l-12.962-14.2h-3.24l-12.962-14.2h-3.241q-0.81-1.578-1.621-3.155h-1.62l-3.24-4.732-6.481-1.578-1.62-3.155-4.861-1.577v-1.577l-6.481-1.577-1.62-3.155-6.481-1.578-1.621-3.154-6.481-1.578q-0.808-1.577-1.62-3.154h-3.24l-1.62-3.155-6.481-1.578v-1.577l-9.722-3.155V96.614h-4.861V95.037h-3.24V93.459h-4.861V91.882L188.91,90.3V88.727h-4.86V87.15h-3.241V85.572h-4.861V83.995l-6.481-1.577V80.84L132.2,72.953V71.376h-6.481V69.8H119.24V68.221h-8.1V66.644h-9.721V65.066H91.7V63.489H80.354V61.912H70.632V60.334H56.05V58.757h-16.2C28.8,55.7,15.172,55.732.962,55.6V1.972c11.55-2,28.077-1.577,42.126-1.577H1263.13c6.6,0,18.93-1.6,22.68,1.577,9.2,7.32,5.13,34.161,4.87,52.053-4.24,2.18-2.75,2.79-9.73,3.155-3.74,3.014-10.46-.032-16.2,1.577v1.578h-16.2v1.577h-17.82v1.578h-14.59v1.577h-9.72v1.577h-9.72l-72.91,15.774v1.577h-6.48v1.578l-6.48,1.577v1.577l-8.1,1.577v1.578h-3.24v1.577h-4.86v1.577l-6.48,1.577v1.577h-3.25v1.578h-4.86v1.577l-9.72,3.155v1.577h-3.24v1.578l-9.72,3.154-1.62,3.155h-3.24v1.577h-3.24v1.578h-3.24l-3.24,3.155h-3.24l-1.62,3.154h-3.24l-3.24,3.155-6.48,1.577q-1.62,2.367-3.25,4.732h-1.61c-0.55,1.052-1.09,2.1-1.63,3.155h-3.24l-11.34,12.619h-3.24q-4.857,5.52-9.72,11.042l-4.86,1.577-6.481,7.887-3.241,1.577v3.155l-6.481,4.732v3.155l-6.481,4.732q-0.808,2.365-1.62,4.732l-3.24,1.577v3.155l-6.481,4.732v3.155l-3.241,1.577v1.578l-3.24,1.577v3.154l-3.241,1.578-1.62,4.732h-1.62q-1.62,4.732-3.241,9.464l-3.241,1.578q-1.618,4.731-3.24,9.464l-3.24,1.578-1.62,6.309-3.241,1.577-3.24,9.464-3.241,1.578v3.155h-1.62v4.732h-1.62V271.7h-1.62v4.732H908.3v4.732h-1.62v6.309h-1.62v4.732h-1.621v4.733h-1.62v4.732H900.2V306.4h-1.621v4.732h-1.62v7.887c-3.91,12.214-6.041,28.714-9.721,41.011l-1.62,33.125h-1.621V410.51c-4.232,14.358-5.506,32.958-9.721,47.321V1325.38c5.373,2.77,7.077,3.25,16.2,3.16,3.666,3.1,10.482.02,16.2,1.58,17.337,4.72,48.935,1.57,69.67,1.57H1810.77c17.71-.4,45.75-4.75,63.19,0h192.81C2092.48,1331.69,2121.42,1331.2,2144.54,1333.27ZM981.209,2565.2v-3.16L968.247,2551l-1.62-3.15h-3.241q-8.1-8.685-16.2-17.36h-1.62q-0.81-1.575-1.62-3.15H940.7c-0.54-1.05-1.08-2.1-1.62-3.16q-4.86-3.93-9.722-7.88v-3.16q-3.24-2.355-6.481-4.73v-3.15q-4.05-3.165-8.1-6.31v-3.16c-2.16-1.58-4.321-3.15-6.481-4.73v-3.15l-6.481-4.74v-3.15c-1.08-.53-2.16-1.05-3.241-1.58v-1.58c-1.079-.52-2.16-1.05-3.24-1.57v-3.16c-1.08-.52-2.16-1.05-3.24-1.58v-3.15q-2.43-1.575-4.861-3.16v-3.15c-1.08-.53-2.161-1.05-3.241-1.58v-3.15c-1.619-1.05-3.24-2.11-4.86-3.16v-3.15c-1.08-.53-2.161-1.05-3.24-1.58v-3.15q-2.431-1.59-4.861-3.16v-3.15c-1.081-.53-2.161-1.05-3.241-1.58v-3.16c-1.08-.52-2.16-1.05-3.241-1.57q-5.67-12.615-11.341-25.24h-1.62v-3.16h-1.621v-3.15h-1.62v-3.16h-1.62v-3.15h-1.62q-1.62-4.725-3.241-9.46h-1.62v-4.74h-1.62v-3.15h-1.62v-4.73h-1.621v-3.16h-1.62c-0.54-3.15-1.081-6.31-1.62-9.46h-1.621v-3.16h-1.62v-4.73h-1.62v-3.15h-1.62q-0.81-3.945-1.621-7.89h-1.62v-4.73h-1.62l-4.861-47.32h-1.62q-0.81-7.1-1.62-14.2h-1.62l-1.621-14.2h-1.62v-6.31h-1.62l-1.62-14.19h-1.621v-9.47c-3.45-11.26-4.766-26.55-8.1-37.85v-50.48h-1.62v-12.62h-1.62v-12.62H790.02v-11.04H788.4v-12.62h-1.62v-50.47h-1.62v-25.24c-4.572-15.83-1.619-41.23-1.62-59.94q-0.81-68.61-1.621-137.23V820.626q-0.81-119.868-1.62-239.76c0-17.309-2.567-40.717,1.62-55.208V500.42h1.621V483.069q0.808-16.56,1.62-33.125h1.62V424.707c4.323-14.69,3.816-34.249,8.1-48.9V358.457h1.62q0.81-16.562,1.621-33.124c7.022-22.439,12.014-48.4,19.442-70.982q2.432-14.195,4.861-28.393h1.62q1.622-4.731,3.241-9.464h1.62v-3.155h1.62v-3.154h1.621V207.03h1.62V202.3h1.62q1.62-4.731,3.241-9.464h1.62v-3.155h1.62l3.241-9.463h1.62l1.62-4.733,3.241-1.577V170.75l3.24-1.577v-3.155q2.432-1.576,4.861-3.155v-3.154h1.62l1.62-4.733,3.241-1.577v-3.155l4.861-3.154v-3.155h1.62l1.62-4.732,3.24-1.577v-3.155l6.481-4.732v-3.155l3.241-1.578v-1.577l3.241-1.577V118.7h1.62c2.338-2.759,3.68-3.812,4.86-7.887h4.861c1.311-2.073,1.141-1.857,3.241-3.154v-1.578H388.2v1.578q3.24,2.364,6.481,4.732v3.154l6.481,4.733v3.154l6.481,4.732v3.155l6.481,4.732V139.2l6.481,4.732v3.155l4.861,3.154V153.4l3.24,1.577,1.62,4.733h1.62v3.154l3.241,1.578V167.6l3.241,1.578v3.154l3.24,1.578v3.155l3.24,1.577v3.155l3.241,1.577v3.155l3.241,1.577v3.155l3.24,1.577v3.155h1.621v3.155h1.62v4.732h1.62l1.62,6.31h1.62v4.731h1.62v3.155h1.621l1.62,6.31h1.62v4.732h1.621l1.62,6.309h1.62v4.733h1.62v3.154h1.621q0.808,7.1,1.62,14.2h1.62l1.62,14.2h1.62v6.309h1.621q0.81,7.1,1.62,14.2h1.62q3.24,31.545,6.481,63.1h1.62v11.041h1.621v12.619H500v12.619h1.62v17.351h1.62v15.774h1.621v17.351h1.62V467.3h1.62v25.237c4.866,16.842,1.619,47.667,1.62,67.827V2118.8c0,13.59,1.543,31.66-1.62,42.59v50.48h-1.62l-1.62,33.12v17.35c-4.443,15.06-3.683,35.41-8.1,50.48v17.35h-1.62l-1.62,33.12H491.9v4.74h-1.62v3.15h-1.621q-1.618,7.095-3.24,14.2h-1.621v3.15h-1.62q-1.62,7.095-3.24,14.2h-1.62v3.15h-1.621c-0.54,3.16-1.08,6.31-1.62,9.47h-1.62v6.31h-1.62v4.73h-1.621l-1.62,11.04h-1.62q-0.81,5.52-1.621,11.04h-1.62v6.31h-1.62v4.73h-1.62q-1.62,4.74-3.24,9.47H454.63v3.15h-1.62v3.16h-1.62q-1.62,4.725-3.241,9.46c-1.08.53-2.16,1.05-3.241,1.58q-0.81,3.15-1.619,6.31h-1.621v3.15h-1.62v3.16h-1.62v3.15l-3.241,3.16v3.15q-2.43,1.575-4.861,3.16v3.15q-5.67,4.725-11.341,9.46v3.16l-9.722,7.89v3.15l-9.721,7.89v3.15c-1.62,1.05-3.241,2.11-4.861,3.16q-4.86,6.3-9.721,12.62H981.209ZM874.273,1390.06q-0.81,2.355-1.62,4.73h-1.62v4.73h-1.621v89.91h1.621v425.89c0,16.84-2.452,39.6,1.62,53.63v25.24h1.62v48.9h1.621v15.77h1.619v17.35c4.725,16.04,3.4,37.74,8.1,53.63v12.62h1.62q1.62,24.45,3.241,48.9h1.62v6.31c5.876,16.05,10.358,36.09,16.2,52.05v6.31h1.621v6.31h1.62v6.31h1.62v6.31h1.62v4.73h1.62V2286h1.621v3.16h1.62v4.73h1.62v3.15h1.62v4.74H924.5q0.81,3.15,1.62,6.31h1.62v4.73h1.62q0.81,3.15,1.621,6.31H932.6q3.241,9.465,6.482,18.93c1.08,0.52,2.16,1.05,3.24,1.57q1.62,4.74,3.241,9.47c1.079,0.52,2.16,1.05,3.24,1.57q1.62,4.74,3.241,9.47c1.08,0.52,2.16,1.05,3.24,1.58q0.812,3.15,1.62,6.31c1.081,0.52,2.161,1.05,3.241,1.57q1.62,4.74,3.24,9.47h1.621q0.81,2.355,1.62,4.73c1.08,0.52,2.16,1.05,3.24,1.58v3.15q3.242,2.37,6.481,4.73v3.16q3.24,2.355,6.481,4.73v3.15l6.482,4.74v3.15q3.24,2.37,6.48,4.73v3.16c2.161,1.58,4.319,3.15,6.479,4.73v3.15q11.34,10.26,22.69,20.51v3.16q4.86,3.93,9.72,7.88,6.48,7.095,12.96,14.2h3.24c1.08,1.58,2.16,3.15,3.24,4.73h3.24c1.62,2.1,3.24,4.21,4.86,6.31h3.24q1.62,2.37,3.24,4.73h3.24q1.62,2.37,3.24,4.73h3.24l3.24,4.74h3.24q1.62,2.355,3.25,4.73h3.24l1.62,3.15q3.24,0.8,6.48,1.58v1.58h3.24v1.58h3.24v1.57h3.24v1.58h3.24v1.58h3.24v1.58c2.16,0.52,4.32,1.05,6.48,1.57v1.58h3.24v1.58h3.24v1.57h3.24v1.58h3.24v1.58h3.24v1.58c2.16,0.52,4.32,1.05,6.48,1.57v1.58h3.24v1.58h4.87v1.58h3.24v1.57h4.86v1.58h3.24v1.58h4.86v1.58c2.16,0.52,4.32,1.05,6.48,1.57v1.58h4.86v1.58h3.24v1.58h4.86v1.57h3.24V2551l29.17,3.15c13.91,3.97,31,6.13,48.6,6.31q0.81-2.355,1.62-4.73c3.66-4.1,1.35-17.27,3.24-23.66h1.62V1879.04h-1.62v-17.35h-1.62v-15.77h-1.62v-67.83h-1.62v-12.62h-1.62v-12.62h-1.62v-12.62h-1.62v-12.62h-1.62v-12.62h-1.62v-12.61h-1.62v-12.62h-1.62v-12.62h-1.62v-7.89h-1.62v-7.89h-1.62v-9.46h-1.62v-7.89h-1.62v-7.88h-1.62v-7.89h-1.62v-4.73h-1.62v-3.16h-1.62v-4.73h-1.62v-3.15h-1.62c-0.54-3.16-1.08-6.31-1.62-9.47h-1.62l-1.62-7.89h-1.62v-3.15h-1.62q-2.43-7.89-4.86-15.77c-1.08-.53-2.16-1.06-3.24-1.58-0.54-2.1-1.08-4.21-1.62-6.31-1.08-.53-2.17-1.05-3.25-1.58v-3.15h-1.62v-3.16h-1.62q-0.81-2.355-1.62-4.73c-1.08-.53-2.16-1.05-3.24-1.58q-0.81-3.15-1.62-6.31c-1.08-.52-2.16-1.05-3.24-1.57q-0.81-3.165-1.62-6.31c-1.08-.53-2.16-1.06-3.24-1.58v-3.16l-4.86-3.15q-0.81-2.37-1.62-4.73l-12.96-11.04v-3.16q-5.67-4.725-11.34-9.46l-1.62-4.74c-1.08-.52-2.16-1.05-3.24-1.57q-4.05-4.74-8.1-9.47h-3.25c-2.69-3.15-5.4-6.31-8.1-9.46h-3.24l-9.72-11.04h-3.24q-4.05-4.74-8.1-9.47h-3.24q-2.43-3.15-4.86-6.31c-2.16-.52-4.32-1.05-6.48-1.57l-3.24-3.16h-3.24l-1.62-3.15h-3.24v-1.58h-3.24v-1.58h-3.24l-3.25-3.15h-3.24c-0.54-1.05-1.08-2.11-1.62-3.16-2.16-.52-4.32-1.05-6.48-1.57v-1.58q-4.86-1.575-9.72-3.16v-1.57h-4.86v-1.58h-3.24v-1.58q-4.86-.78-9.72-1.58v-1.57h-3.24v-1.58c-3.24-.53-6.48-1.05-9.72-1.58v-1.58h-4.86v-1.57h-3.24v-1.58h-4.87v-1.58c-4.31-.52-8.64-1.05-12.96-1.58v-1.57h-8.1C964.435,1396.12,921.09,1390.47,874.273,1390.06Zm359.7,41.01v3.15q6.48,4.74,12.96,9.47v3.15h1.62q1.62,2.37,3.24,4.73,5.67,4.74,11.34,9.47v3.15q4.05,3.165,8.1,6.31v3.16c1.08,0.52,2.16,1.05,3.24,1.57l1.62,4.74h1.62v3.15c1.08,0.53,2.16,1.05,3.24,1.58v3.15c1.08,0.53,2.16,1.05,3.24,1.58v3.16c1.08,0.52,2.17,1.05,3.25,1.57v3.16c1.08,0.52,2.16,1.05,3.24,1.57v3.16c1.08,0.53,2.16,1.05,3.24,1.58v3.15c1.08,0.53,2.16,1.05,3.24,1.58v3.15c1.08,0.53,2.16,1.06,3.24,1.58v3.16h1.62q0.81,3.15,1.62,6.31h1.62v4.73h1.62v3.15h1.62q1.62,4.74,3.24,9.47h1.62v4.73h1.62v3.15h1.62q0.81,3.165,1.62,6.31h1.62v4.73h1.62q0.81,3.165,1.62,6.31h1.62v4.74h1.62v4.73h1.62v4.73h1.62v4.73h1.62v6.31h1.62v4.73h1.62v4.74h1.62v4.73h1.62v4.73h1.62v4.73h1.62q0.81,10.26,1.62,20.51c4.84,16.03,4.9,37.31,9.72,53.63v12.62h1.62v12.62h1.63v17.35l1.62,33.12h1.62v48.9h1.62v25.24h1.62v25.24c3.41,11.82,1.62,31.22,1.62,45.74V3415.4c0.03,19.58,5.48,47.32,0,66.25V3499h-1.62v15.77h-1.62v17.35h-1.62v15.78h-1.62v17.35h-1.62v66.25c-7.02,23.14-9.09,51.24-16.21,74.13q-1.62,12.63-3.24,25.24h-1.62v4.73h-1.62v4.74h-1.62v4.73h-1.62v4.73h-1.62v4.73h-1.62v4.73h-1.62V3764h-1.62l-3.24,14.19h-1.62q-1.62,4.74-3.24,9.47h-1.62v3.15h-1.62v3.16h-1.62q-0.81,3.15-1.62,6.31h-1.62v3.15h-1.62v3.16h-1.62v3.15h-1.62v3.16h-1.62v3.15h-1.62c-0.54,2.1-1.08,4.21-1.62,6.31-1.08.53-2.16,1.05-3.24,1.58v3.15c-1.08.53-2.16,1.05-3.24,1.58v3.15c-1.08.53-2.16,1.06-3.24,1.58v3.16h-1.63q-0.81,2.355-1.62,4.73c-1.08.52-2.16,1.05-3.24,1.57v3.16l-4.86,3.15v3.16c-1.08.53-2.16,1.05-3.24,1.58v3.15h-1.62q-0.81,2.37-1.62,4.73c-1.08.53-2.16,1.06-3.24,1.58v3.16q-4.05,3.15-8.1,6.31-12.15,13.395-24.3,26.81h524.96v-1.58c-8-4.72-11.54-12.61-17.83-18.93q-7.29-6.3-14.58-12.61l-1.62-4.74q-4.05-3.15-8.1-6.31v-3.15h-1.62v-3.16c-1.08-.52-2.16-1.05-3.24-1.57q-1.62-4.74-3.24-9.47c-1.08-.52-2.16-1.05-3.24-1.57q-1.62-4.74-3.24-9.47c-1.08-.52-2.16-1.05-3.24-1.58q-1.62-4.725-3.24-9.46c-1.08-.53-2.16-1.05-3.24-1.58v-3.15h-1.62v-3.16h-1.62v-4.73h-1.62c-0.55-2.1-1.09-4.21-1.63-6.31h-1.62v-4.73h-1.62v-3.16h-1.62q-0.81-3.15-1.62-6.31h-1.62v-4.73h-1.62q-0.81-3.15-1.62-6.31h-1.62v-4.73h-1.62V3764h-1.62q-2.43-11.04-4.86-22.09h-1.62v-4.73h-1.62l-1.62-11.04h-1.62l-1.62-11.04h-1.62v-7.89h-1.62l-1.62-14.19h-1.62v-6.31h-1.62v-7.89h-1.62v-6.31h-1.62v-7.89h-1.62q-0.81-25.23-1.62-50.47h-1.62v-12.62h-1.62v-12.62h-1.62v-12.62h-1.62v-12.62h-1.62v-25.24c-4.87-16.83-1.62-47.67-1.62-67.82V1888.5c-0.01-14.05-1.67-32.79,1.62-44.16v-50.48h1.62v-25.24h1.62v-25.23h1.62v-17.35h1.62v-15.78h1.62l1.62-29.97q7.29-42.585,14.58-85.18h1.62v-4.73h1.62v-4.73h1.62v-4.73h1.62v-4.73h1.62v-4.74h1.62v-3.15h1.62v-4.73h1.62v-4.74h1.62v-4.73h1.62v-4.73h1.62v-4.73h1.62v-3.16h1.62q0.81-3.15,1.62-6.31h1.62v-3.15h1.62v-3.16h1.62v-3.15h1.63v-3.15h1.62v-3.16h1.62v-3.15h1.62v-3.16h1.62v-3.15h1.62v-3.16h1.62v-3.15l3.24-3.16v-3.15c1.62-1.05,3.24-2.11,4.86-3.16v-3.15q3.24-2.37,6.48-4.73v-3.16c2.16-1.58,4.32-3.15,6.48-4.73v-3.16q3.24-2.355,6.48-4.73v-3.15q3.24-2.37,6.48-4.73v-3.16c2.16-1.58,4.32-3.15,6.48-4.73v-3.16l12.96-11.04c2.61-2.61,3.19-5.83,6.49-7.88v-1.58H1233.97Zm2373.65,0H3089.15v1.58q5.67,4.725,11.34,9.46v3.15q6.48,5.52,12.96,11.05v3.15q5.67,4.74,11.34,9.46l1.62,4.74,4.86,3.15v3.16c1.08,0.52,2.16,1.05,3.24,1.57l1.62,4.74h1.62v3.15c1.08,0.53,2.16,1.05,3.24,1.58q0.81,3.15,1.62,6.31h1.62q0.81,2.355,1.62,4.73c1.08,0.53,2.16,1.05,3.24,1.58q0.81,3.15,1.62,6.31c1.08,0.52,2.16,1.05,3.25,1.57v3.16c1.08,0.52,2.16,1.05,3.24,1.58v3.15c1.08,0.53,2.16,1.05,3.24,1.58q4.05,11.82,8.1,23.66h1.62v3.15h1.62q12.15,35.49,24.3,70.98,0.81,10.26,1.62,20.51c2.58,8.54,3.95,21.41,6.48,29.97v17.35h1.62v15.78h1.62v17.35h1.62v12.62h1.62v12.61c4.54,15.43,4.86,33.78,4.86,53.63v47.33h1.62v25.23c4.19,14.5,1.62,37.9,1.63,55.21V3454.83c0,11.27.89,26-1.63,34.7v25.24h-1.62v25.24h-1.62v17.35h-1.62v15.78h-1.62v17.35h-1.62q-0.81,25.23-1.62,50.47c-3.48,11.64-4.52,27.76-8.1,39.44v9.46c-3.75,11.62-7.32,26.32-11.34,37.86q-0.81,6.3-1.62,12.62h-1.62v4.73h-1.62v4.73h-1.62v4.73h-1.62v4.73h-1.62V3764h-1.62v6.31h-1.62v4.73h-1.62v4.73h-1.62v4.73h-1.62v4.73h-1.62v3.16c-1.08.53-2.16,1.05-3.24,1.58q-1.62,4.725-3.24,9.46c-1.08.53-2.16,1.05-3.24,1.58q-0.81,3.15-1.62,6.31c-1.08.52-2.16,1.05-3.24,1.58v3.15h-1.63v3.15c-1.08.53-2.16,1.06-3.24,1.58q-1.62,4.74-3.24,9.47h-1.62q-0.81,2.355-1.62,4.73c-1.08.52-2.16,1.05-3.24,1.58v3.15q-3.24,2.37-6.48,4.73v3.16q-3.24,2.355-6.48,4.73v3.15l-6.48,4.74v3.15q-3.24,2.37-6.48,4.73v3.16c-2.16,1.58-4.32,3.15-6.48,4.73v3.15q-4.05,3.165-8.1,6.31v3.16c-1.08.52-2.16,1.05-3.24,1.58q-3.24,4.725-6.48,9.46h526.57v-1.58l-14.58-11.04v-3.15q-4.05-3.165-8.1-6.31v-3.16q-3.24-2.355-6.48-4.73v-3.15q-4.05-3.165-8.1-6.31v-3.16q-4.05-3.15-8.1-6.31v-3.15c-1.62-1.05-3.24-2.11-4.86-3.16q-0.81-3.15-1.62-6.31h-1.62v-3.15c-1.08-.53-2.16-1.05-3.24-1.58q-1.62-4.725-3.24-9.46h-1.62v-3.16h-1.62v-3.15h-1.63v-3.16l-3.24-3.15v-3.16c-1.08-.52-2.16-1.05-3.24-1.57q-0.81-3.165-1.62-6.31h-1.62q-0.81-3.165-1.62-6.31h-1.62v-4.74h-1.62q-0.81-3.15-1.62-6.31h-1.62v-4.73h-1.62v-3.15h-1.62c-0.54-2.1-1.08-4.21-1.62-6.31h-1.62V3764h-1.62q-0.81-3.165-1.62-6.31h-1.62v-4.73h-1.62v-3.16h-1.62q-2.43-14.19-4.86-28.39c-6.97-21.13-9.6-47.57-16.2-69.41v-12.62h-1.62v-11.04h-1.62q-0.81-28.38-1.62-56.78v-17.35h-1.62v-15.78h-1.62v-17.35h-1.62q-0.81-11.82-1.63-23.66v-17.35c-3.62-12.58-3.61-66.28,0-78.87V1943.71c-1.85-20.87-1.61-47.57-1.62-70.98,0-11.73-1.02-27.12,1.62-36.28v-50.47h1.63v-17.36h1.62v-15.77h1.62V1735.5h1.62v-25.24h1.62v-25.24c2.97-9.78,5.09-23.44,8.1-33.12q0.81-8.67,1.62-17.35h1.62v-6.31h1.62v-6.31h1.62v-6.31h1.62v-6.31h1.62q2.43-11.835,4.86-23.66h1.62v-4.73h1.62v-4.73h1.62v-4.74h1.62v-4.73h1.62v-4.73h1.62v-4.73h1.62v-4.73h1.62v-4.74h1.62c0.54-3.15,1.08-6.31,1.62-9.46h1.62c0.54-2.1,1.08-4.21,1.62-6.31h1.62v-3.16c1.08-.52,2.16-1.05,3.24-1.57v-3.16l3.24-3.15v-3.16h1.62v-3.15h1.62v-3.16h1.62q0.81-3.15,1.62-6.31c1.08-.52,2.17-1.05,3.25-1.57v-3.16h1.62v-3.15l3.24-3.16v-3.15c1.08-.53,2.16-1.05,3.24-1.58v-3.15q2.43-1.59,4.86-3.16v-3.15l6.48-4.74v-3.15q2.43-1.575,4.86-3.16v-3.15l4.86-3.15v-3.16c2.16-1.58,4.32-3.15,6.48-4.73v-3.16l4.86-3.15q0.81-2.37,1.62-4.73h3.24C3604.69,1440.53,3606.14,1437.86,3607.62,1431.07Z"/>
</svg>
