<svg width="50" height="50" viewBox="0 0 50 50" fill="none" xmlns="http://www.w3.org/2000/svg">
<path d="M49.7492 23.292H47.3502V12.2567C47.3502 9.61114 45.198 7.45886 42.5524 7.45886H39.3033L35.9783 1.48069C35.4716 0.567074 34.5072 0 33.4613 0C32.9738 0 32.4902 0.125718 32.0631 0.36267L19.3026 7.45871H5.04904C2.40344 7.45871 0.25116 9.61099 0.25116 12.2566V45.202C0.25116 47.8476 2.40344 49.9999 5.04904 49.9999H42.5524C45.198 49.9999 47.3502 47.8476 47.3502 45.202V35.5265H49.7492V23.292ZM42.5524 9.37792C44.0301 9.37792 45.2372 10.5006 45.3994 11.9371H41.7933L40.3711 9.37792H42.5524ZM32.9968 2.04C33.4468 1.78767 34.0524 1.96415 34.3008 2.41238L39.5977 11.9362H15.1995L32.9968 2.04ZM45.431 45.202C45.431 46.7891 44.1394 48.0808 42.5522 48.0808H5.04904C3.46189 48.0808 2.17022 46.7891 2.17022 45.202V12.2567C2.17022 10.6696 3.46189 9.37792 5.04904 9.37792H15.852L11.2498 11.9372H5.64881C5.11817 11.9372 4.68921 12.3671 4.68921 12.8968C4.68921 13.4266 5.11817 13.8564 5.64881 13.8564H7.79826H42.8604H45.431V23.2929H38.4137C35.1549 23.2929 32.5027 25.9452 32.5027 29.2039V29.6165C32.5027 32.8754 35.155 35.5275 38.4137 35.5275H45.431V45.202ZM47.83 33.6074H47.3502H38.4137C36.2124 33.6074 34.4218 31.8169 34.4218 29.6155V29.2028C34.4218 27.0016 36.2123 25.2109 38.4137 25.2109H47.3502H47.83V33.6074ZM41.3528 29.488C41.3528 30.6587 40.4047 31.6067 39.2341 31.6067C38.0634 31.6067 37.1154 30.6586 37.1154 29.488C37.1154 28.3174 38.0635 27.3693 39.2341 27.3693C40.4049 27.3692 41.3528 28.3182 41.3528 29.488Z" fill="black"/>
</svg>
